<svg width="747" height="557" viewBox="0 0 747 557" fill="none" xmlns="http://www.w3.org/2000/svg">
<path d="M747 489.136H0V489.509H747V489.136Z" fill="#EBEBEB"/>
<path d="M672.151 513.174H622.669V513.547H672.151V513.174Z" fill="#EBEBEB"/>
<path d="M494.843 517.237H481.86V517.611H494.843V517.237Z" fill="#EBEBEB"/>
<path d="M621.175 499.31H592.505V499.683H621.175V499.31Z" fill="#EBEBEB"/>
<path d="M142.901 501.819H78.375V502.193H142.901V501.819Z" fill="#EBEBEB"/>
<path d="M165.67 501.819H156.213V502.193H165.67V501.819Z" fill="#EBEBEB"/>
<path d="M336.374 508.124H196.416V508.498H336.374V508.124Z" fill="#EBEBEB"/>
<path d="M354.078 422.503H65.6015C63.3416 422.499 61.1756 421.599 59.579 419.999C57.9824 418.4 57.0857 416.232 57.0857 413.972V8.45604C57.1054 6.2091 58.0108 4.06066 59.6052 2.47738C61.1997 0.894097 63.3545 0.00384912 65.6015 0H354.078C356.34 0 358.51 0.898772 360.11 2.4986C361.71 4.09842 362.609 6.26825 362.609 8.53074V413.972C362.609 416.235 361.71 418.405 360.11 420.005C358.51 421.604 356.34 422.503 354.078 422.503ZM65.6015 0.298801C63.4406 0.302759 61.3697 1.16392 59.8431 2.69327C58.3166 4.22262 57.4592 6.29519 57.4592 8.45604V413.972C57.4592 416.133 58.3166 418.206 59.8431 419.735C61.3697 421.265 63.4406 422.126 65.6015 422.13H354.078C356.24 422.126 358.313 421.265 359.842 419.736C361.371 418.207 362.231 416.135 362.235 413.972V8.45604C362.231 6.29382 361.371 4.22129 359.842 2.69236C358.313 1.16344 356.24 0.30275 354.078 0.298801H65.6015Z" fill="#EBEBEB"/>
<path d="M677.245 422.503H388.754C386.493 422.499 384.325 421.599 382.726 420C381.127 418.401 380.227 416.234 380.223 413.972V8.45604C380.247 6.20774 381.155 4.05931 382.752 2.47644C384.349 0.893574 386.505 0.00380715 388.754 0H677.245C679.49 0.00777552 681.641 0.89976 683.232 2.48262C684.823 4.06548 685.727 6.21168 685.746 8.45604V413.972C685.746 416.23 684.851 418.395 683.258 419.994C681.665 421.593 679.503 422.495 677.245 422.503ZM388.754 0.298801C386.592 0.30275 384.519 1.16344 382.99 2.69236C381.461 4.22129 380.601 6.29382 380.597 8.45604V413.972C380.601 416.135 381.461 418.207 382.99 419.736C384.519 421.265 386.592 422.126 388.754 422.13H677.245C679.408 422.126 681.48 421.265 683.009 419.736C684.538 418.207 685.399 416.135 685.402 413.972V8.45604C685.399 6.29382 684.538 4.22129 683.009 2.69236C681.48 1.16344 679.408 0.30275 677.245 0.298801H388.754Z" fill="#EBEBEB"/>
<path d="M362.056 177.606H149.938V488.612H362.056V177.606Z" fill="#F0F0F0"/>
<path d="M354.556 187.393H157.423V244.837H354.556V187.393Z" fill="#E0E0E0"/>
<path d="M168.628 196.686H157.423V244.822H168.628V196.686Z" fill="#EBEBEB"/>
<path d="M222.786 196.686H211.581V244.822H222.786V196.686Z" fill="#EBEBEB"/>
<path d="M284.251 195.477L273.209 197.38L281.386 244.817L292.428 242.914L284.251 195.477Z" fill="#EBEBEB"/>
<path d="M182.507 203.034H171.302V244.836H182.507V203.034Z" fill="#EBEBEB"/>
<path d="M208.249 203.034H197.044V244.836H208.249V203.034Z" fill="#EBEBEB"/>
<path d="M273.223 203.034H262.018V244.836H273.223V203.034Z" fill="#EBEBEB"/>
<path d="M237.503 201.584L226.565 204.015L235.634 244.821L246.572 242.39L237.503 201.584Z" fill="#EBEBEB"/>
<path d="M192.188 194.295H186.585V244.822H192.188V194.295Z" fill="#EBEBEB"/>
<path d="M258.791 194.295H253.188V244.822H258.791V194.295Z" fill="#EBEBEB"/>
<path d="M157.438 311.379H354.571V253.935L157.438 253.935V311.379Z" fill="#E0E0E0"/>
<path d="M343.351 311.364H354.556V263.228H343.351V311.364Z" fill="#EBEBEB"/>
<path d="M289.209 311.364H300.414V263.228H289.209V311.364Z" fill="#EBEBEB"/>
<path d="M219.569 309.452L230.611 311.355L238.788 263.918L227.746 262.015L219.569 309.452Z" fill="#EBEBEB"/>
<path d="M329.472 311.379H340.677V269.577H329.472V311.379Z" fill="#EBEBEB"/>
<path d="M303.745 311.379H314.95V269.577H303.745V311.379Z" fill="#EBEBEB"/>
<path d="M238.771 311.379H249.976V269.577H238.771V311.379Z" fill="#EBEBEB"/>
<path d="M265.459 308.937L276.397 311.368L285.466 270.562L274.528 268.131L265.459 308.937Z" fill="#EBEBEB"/>
<path d="M319.791 311.364H325.393V260.837H319.791V311.364Z" fill="#EBEBEB"/>
<path d="M253.203 311.364H258.805V260.837H253.203V311.364Z" fill="#EBEBEB"/>
<path d="M168.628 263.228H157.423V311.364H168.628V263.228Z" fill="#EBEBEB"/>
<path d="M182.507 269.562H171.302V311.365H182.507V269.562Z" fill="#EBEBEB"/>
<path d="M208.249 269.562H197.044V311.365H208.249V269.562Z" fill="#EBEBEB"/>
<path d="M192.188 260.838H186.585V311.365H192.188V260.838Z" fill="#EBEBEB"/>
<path d="M354.556 320.463H157.423V377.907H354.556V320.463Z" fill="#E0E0E0"/>
<path d="M281.783 329.756H270.578V377.893H281.783V329.756Z" fill="#EBEBEB"/>
<path d="M343.258 328.543L332.216 330.446L340.393 377.883L351.435 375.98L343.258 328.543Z" fill="#EBEBEB"/>
<path d="M241.505 336.105H230.3V377.908H241.505V336.105Z" fill="#EBEBEB"/>
<path d="M267.247 336.105H256.042V377.908H267.247V336.105Z" fill="#EBEBEB"/>
<path d="M332.221 336.105H321.016V377.908H332.221V336.105Z" fill="#EBEBEB"/>
<path d="M296.506 334.656L285.568 337.087L294.637 377.893L305.575 375.462L296.506 334.656Z" fill="#EBEBEB"/>
<path d="M251.186 327.365H245.584V377.892H251.186V327.365Z" fill="#EBEBEB"/>
<path d="M317.789 327.365H312.186V377.892H317.789V327.365Z" fill="#EBEBEB"/>
<path d="M214.421 328.555L203.379 330.458L211.555 377.895L222.598 375.992L214.421 328.555Z" fill="#EBEBEB"/>
<path d="M203.378 336.105H192.173V377.908H203.378V336.105Z" fill="#EBEBEB"/>
<path d="M167.669 334.656L156.731 337.087L165.8 377.893L176.738 375.462L167.669 334.656Z" fill="#EBEBEB"/>
<path d="M188.961 327.365H183.359V377.892H188.961V327.365Z" fill="#EBEBEB"/>
<path d="M113.335 489.419H149.938L149.938 177.606H113.335L113.335 489.419Z" fill="#E0E0E0"/>
<path d="M486.207 481.278H455.117L471.462 348.102C471.854 345.32 473.221 342.767 475.319 340.898C477.418 339.03 480.111 337.967 482.921 337.898H618.516L598.631 481.218L486.207 481.278Z" fill="#F5F5F5"/>
<path d="M584.811 481.277H615.901L632.26 348.101C632.46 346.821 632.376 345.513 632.014 344.269C631.652 343.025 631.021 341.875 630.166 340.902C629.311 339.928 628.253 339.155 627.066 338.636C625.878 338.116 624.592 337.864 623.296 337.897H612.614C609.811 337.983 607.126 339.052 605.031 340.918C602.936 342.783 601.564 345.326 601.155 348.101L584.811 481.277Z" fill="#F0F0F0"/>
<path d="M573.367 481.068L578.999 416.677C579.118 415.28 579.713 413.966 580.683 412.955C581.654 411.943 582.942 411.295 584.333 411.119L586.649 410.82C588.518 410.586 590.25 409.716 591.553 408.356C592.856 406.995 593.651 405.228 593.805 403.35L594.836 391.608C594.938 390.469 594.801 389.322 594.435 388.239C594.069 387.156 593.481 386.162 592.71 385.318C591.938 384.475 591 383.802 589.953 383.341C588.907 382.881 587.777 382.643 586.634 382.644H638.595C639.738 382.643 640.869 382.881 641.915 383.341C642.961 383.802 643.9 384.475 644.671 385.318C645.443 386.162 646.03 387.156 646.396 388.239C646.762 389.322 646.899 390.469 646.797 391.608L645.766 403.35C645.613 405.228 644.818 406.995 643.514 408.356C642.211 409.716 640.479 410.586 638.61 410.82L636.294 411.119C634.905 411.298 633.618 411.947 632.648 412.958C631.678 413.969 631.082 415.281 630.961 416.677L625.328 481.068C625.127 483.331 624.086 485.437 622.411 486.971C620.735 488.506 618.547 489.358 616.275 489.36H564.313C566.585 489.358 568.774 488.506 570.45 486.971C572.125 485.437 573.166 483.331 573.367 481.068Z" fill="#E6E6E6"/>
<path d="M430.362 400.616C429.95 395.729 427.717 391.174 424.107 387.853C420.496 384.533 415.77 382.69 410.865 382.688H456.103C460.996 382.709 465.703 384.56 469.298 387.879C472.893 391.197 475.115 395.741 475.525 400.616L480.007 451.652H434.829L430.362 400.616Z" fill="#E6E6E6"/>
<path d="M390.77 382.748H410.85C415.755 382.749 420.481 384.593 424.092 387.913C427.702 391.233 429.935 395.788 430.346 400.676L434.828 451.711H542.576L547.058 400.676C547.465 395.8 549.686 391.253 553.282 387.934C556.877 384.615 561.587 382.765 566.48 382.748H586.574C587.717 382.748 588.848 382.985 589.894 383.446C590.94 383.906 591.878 384.58 592.65 385.423C593.422 386.266 594.009 387.261 594.375 388.344C594.741 389.426 594.878 390.574 594.776 391.712L593.745 403.455C593.592 405.332 592.797 407.1 591.493 408.46C590.19 409.821 588.458 410.691 586.589 410.925L584.273 411.224C582.883 411.4 581.594 412.048 580.624 413.059C579.653 414.071 579.059 415.385 578.94 416.781L573.367 481.068C573.166 483.331 572.125 485.437 570.45 486.971C568.774 488.506 566.585 489.358 564.313 489.36H413.091C410.819 489.358 408.63 488.506 406.955 486.971C405.279 485.437 404.239 483.331 404.037 481.068L398.405 416.677C398.281 415.282 397.684 413.971 396.715 412.961C395.745 411.95 394.46 411.301 393.071 411.119L390.755 410.82C388.886 410.584 387.153 409.714 385.848 408.354C384.543 406.995 383.744 405.228 383.584 403.35L382.568 391.607C382.482 390.477 382.63 389.342 383.003 388.271C383.376 387.201 383.966 386.219 384.736 385.388C385.506 384.556 386.439 383.892 387.478 383.438C388.516 382.984 389.637 382.749 390.77 382.748Z" fill="#F0F0F0"/>
<path d="M152.627 162.069C152.627 162.069 150.969 151.148 158.932 144.141C166.895 137.134 166.193 132.981 163.907 132.443C161.621 131.905 159.544 138.897 156.048 140.824C156.048 140.824 155.929 130.845 159.485 127.184C163.04 123.524 164.908 114.037 161.516 113.873C158.125 113.708 157.796 119.49 157.034 123.599C156.272 127.707 152.552 133.474 152.552 133.474C152.552 133.474 151.82 124.51 149.564 120.88C147.308 117.249 153.389 108.808 151.058 105.148C148.728 101.487 144.5 108.464 144.843 116.338C145.187 124.211 150.446 132.607 149.221 140.824C149.221 140.824 146.905 135.043 144.828 134.52C142.752 133.997 140.645 130.187 139.256 128.768C137.866 127.349 136.103 132.249 139.256 136.791C142.408 141.332 150.446 153.509 149.221 163.339L152.627 162.069Z" fill="#E6E6E6"/>
<path d="M157.378 157.094L159.992 173.453C160.18 174.641 160.108 175.855 159.782 177.013C159.455 178.17 158.882 179.243 158.101 180.157C157.32 181.072 156.35 181.806 155.258 182.309C154.166 182.813 152.978 183.074 151.775 183.074H148.997C147.794 183.074 146.606 182.813 145.514 182.309C144.422 181.806 143.452 181.072 142.671 180.157C141.89 179.243 141.317 178.17 140.99 177.013C140.664 175.855 140.592 174.641 140.78 173.453L143.424 157.094H157.378Z" fill="#E6E6E6"/>
<path d="M313.815 179.878H321.927V144.993H313.815V179.878Z" fill="#EBEBEB"/>
<path d="M274.582 179.878H282.695V144.993H274.582V179.878Z" fill="#EBEBEB"/>
<path d="M224.121 178.491L232.116 179.869L238.041 145.491L230.047 144.113L224.121 178.491Z" fill="#EBEBEB"/>
<path d="M303.76 179.862H311.873V149.579H303.76V179.862Z" fill="#EBEBEB"/>
<path d="M285.115 179.862H293.227V149.579H285.115V179.862Z" fill="#EBEBEB"/>
<path d="M238.024 179.862H246.136V149.579H238.024V179.862Z" fill="#EBEBEB"/>
<path d="M257.372 178.106L265.291 179.866L271.861 150.304L263.942 148.544L257.372 178.106Z" fill="#EBEBEB"/>
<path d="M296.738 179.878H300.802V143.26H296.738V179.878Z" fill="#EBEBEB"/>
<path d="M248.467 179.878H252.531V143.26H248.467V179.878Z" fill="#EBEBEB"/>
<path d="M219.543 152.179H179.997V179.474H219.543V152.179Z" fill="#EBEBEB"/>
<path d="M355.169 163.354H322.047V183.732H355.169V163.354Z" fill="#EBEBEB"/>
<path d="M347.43 145.44H330.861V165.819H347.43V145.44Z" fill="#EBEBEB"/>
<path d="M624.208 118.475H584.811V282.635H624.208V118.475Z" fill="#E0E0E0"/>
<path d="M472.642 283.083H619.98V118.489L472.642 118.489V283.083Z" fill="#E0E0E0"/>
<path d="M467.891 283.083H620.757V118.489L467.891 118.489V283.083Z" fill="#F0F0F0"/>
<path d="M474.435 275.509H614.482V123.718L474.435 123.718V275.509Z" fill="white"/>
<path d="M474.42 275.509H477.02V123.718H474.42V275.509Z" fill="#E0E0E0"/>
<path d="M476.601 232.885V236.979H614.856V232.885H476.601Z" fill="#E0E0E0"/>
<path d="M474.42 232.87L616.664 232.87V225.998L474.42 225.998V232.87Z" fill="#F0F0F0"/>
<path d="M373.5 556.604C533.481 556.604 663.172 549.033 663.172 539.692C663.172 530.352 533.481 522.78 373.5 522.78C213.519 522.78 83.8284 530.352 83.8284 539.692C83.8284 549.033 213.519 556.604 373.5 556.604Z" fill="#F5F5F5"/>
<path d="M480.993 146.144H213.702C207.662 146.144 202.766 151.04 202.766 157.08V471.806C202.766 477.845 207.662 482.742 213.702 482.742H480.993C487.033 482.742 491.929 477.845 491.929 471.806V157.08C491.929 151.04 487.033 146.144 480.993 146.144Z" fill="#74BF44"/>
<path opacity="0.6" d="M480.993 146.144H213.702C207.662 146.144 202.766 151.04 202.766 157.08V471.806C202.766 477.845 207.662 482.742 213.702 482.742H480.993C487.033 482.742 491.929 477.845 491.929 471.806V157.08C491.929 151.04 487.033 146.144 480.993 146.144Z" fill="white"/>
<path d="M445.092 300.519H249.617V333.984H445.092V300.519Z" fill="white"/>
<g opacity="0.4">
<path d="M267.097 320.509V321.39H260.314V311.799H266.888V312.665H261.33V316.087H266.29V316.938H261.33V320.509H267.097Z" fill="#263238"/>
<path d="M268.457 317.252H272.057V318.089H268.457V317.252Z" fill="#263238"/>
<path d="M286.116 317.207V321.39H285.145V317.297C285.145 315.803 284.383 314.996 283.083 314.996C282.746 314.98 282.41 315.039 282.098 315.167C281.785 315.294 281.505 315.489 281.276 315.737C281.047 315.984 280.875 316.279 280.771 316.6C280.668 316.921 280.636 317.261 280.678 317.596V321.39H279.692V317.297C279.692 315.803 278.93 314.996 277.615 314.996C277.278 314.98 276.942 315.039 276.63 315.167C276.317 315.294 276.037 315.489 275.808 315.737C275.579 315.984 275.407 316.279 275.303 316.6C275.2 316.921 275.168 317.261 275.21 317.596V321.39H274.224V314.174H275.165V315.489C275.447 315.049 275.839 314.69 276.303 314.449C276.767 314.207 277.287 314.092 277.809 314.115C278.337 314.07 278.866 314.19 279.323 314.457C279.781 314.724 280.144 315.127 280.364 315.609C280.663 315.127 281.085 314.735 281.587 314.472C282.089 314.209 282.652 314.086 283.218 314.115C283.623 314.084 284.03 314.144 284.409 314.292C284.788 314.439 285.13 314.67 285.408 314.966C285.686 315.263 285.894 315.619 286.016 316.006C286.139 316.394 286.173 316.805 286.116 317.207Z" fill="#263238"/>
<path d="M294.214 316.908V321.39H293.272V320.255C293.005 320.659 292.633 320.983 292.197 321.194C291.76 321.404 291.275 321.493 290.792 321.45C289.164 321.45 288.163 320.598 288.163 319.358C288.163 318.118 288.88 317.312 290.942 317.312H293.228V316.878C293.228 315.638 292.54 314.966 291.196 314.966C290.318 314.956 289.466 315.258 288.79 315.818L288.357 315.101C289.201 314.422 290.263 314.071 291.345 314.115C291.726 314.068 292.113 314.108 292.477 314.231C292.841 314.354 293.173 314.556 293.448 314.825C293.723 315.093 293.935 315.419 294.068 315.78C294.2 316.14 294.25 316.526 294.214 316.908ZM293.228 319.224V318.044H290.972C289.582 318.044 289.119 318.582 289.119 319.329C289.119 320.076 289.791 320.688 290.942 320.688C291.429 320.72 291.914 320.596 292.325 320.332C292.737 320.069 293.053 319.68 293.228 319.224Z" fill="#263238"/>
<path d="M296.634 311.903C296.636 311.811 296.656 311.72 296.693 311.636C296.73 311.551 296.783 311.475 296.85 311.411C296.917 311.347 296.995 311.297 297.081 311.264C297.167 311.23 297.259 311.214 297.351 311.216C297.441 311.214 297.531 311.23 297.615 311.263C297.699 311.295 297.776 311.344 297.841 311.407C297.906 311.469 297.959 311.544 297.995 311.626C298.031 311.709 298.051 311.798 298.053 311.888C298.055 311.982 298.038 312.075 298.004 312.162C297.97 312.249 297.918 312.328 297.853 312.394C297.787 312.461 297.709 312.514 297.623 312.551C297.537 312.587 297.444 312.605 297.351 312.605C297.257 312.607 297.165 312.591 297.078 312.556C296.991 312.522 296.911 312.471 296.845 312.405C296.778 312.34 296.725 312.262 296.689 312.175C296.652 312.089 296.634 311.997 296.634 311.903ZM296.858 314.174H297.829V321.39H296.858V314.174Z" fill="#263238"/>
<path d="M300.533 311.216H301.504V321.39H300.533V311.216Z" fill="#263238"/>
</g>
<path d="M445.092 346.235H249.617V379.701H445.092V346.235Z" fill="white"/>
<g opacity="0.4">
<path d="M267.814 360.847C267.814 362.894 266.32 364.134 263.9 364.134H261.33V367.122H260.314V357.53H263.9C266.335 357.56 267.814 358.8 267.814 360.847ZM266.798 360.847C266.798 359.353 265.797 358.442 263.81 358.442H261.271V363.237H263.81C265.797 363.237 266.798 362.356 266.798 360.847Z" fill="#263238"/>
<path d="M275.18 362.684V367.166H274.239V366.031C273.971 366.435 273.6 366.759 273.163 366.97C272.727 367.18 272.241 367.269 271.759 367.226C270.13 367.226 269.129 366.374 269.129 365.119C269.129 363.864 269.846 363.043 271.908 363.043H274.194V362.595C274.194 361.369 273.492 360.697 272.147 360.697C271.274 360.686 270.426 360.988 269.757 361.549L269.308 360.817C270.16 360.152 271.217 359.809 272.296 359.846C272.683 359.795 273.076 359.834 273.446 359.958C273.815 360.082 274.152 360.289 274.429 360.563C274.707 360.836 274.919 361.169 275.049 361.537C275.179 361.904 275.224 362.297 275.18 362.684ZM274.209 364.985V363.805H271.908C270.519 363.805 270.07 364.357 270.07 365.104C270.07 365.851 270.728 366.449 271.893 366.449C272.385 366.485 272.876 366.363 273.293 366.099C273.71 365.836 274.031 365.445 274.209 364.985Z" fill="#263238"/>
<path d="M276.823 366.33L277.257 365.568C278.01 366.094 278.907 366.376 279.826 366.375C281.186 366.375 281.753 365.912 281.753 365.195C281.753 363.312 277.077 364.791 277.077 361.953C277.077 360.772 278.093 359.891 279.931 359.891C280.827 359.883 281.709 360.115 282.486 360.563L282.052 361.34C281.424 360.925 280.684 360.711 279.931 360.727C278.631 360.727 278.048 361.235 278.048 361.923C278.048 363.865 282.725 362.401 282.725 365.165C282.725 366.42 281.634 367.226 279.737 367.226C278.694 367.253 277.671 366.939 276.823 366.33Z" fill="#263238"/>
<path d="M283.517 366.329L283.965 365.567C284.71 366.099 285.604 366.382 286.52 366.374C287.894 366.374 288.447 365.911 288.447 365.194C288.447 363.311 283.786 364.79 283.786 361.952C283.786 360.771 284.801 359.89 286.624 359.89C287.521 359.878 288.404 360.111 289.179 360.562L288.761 361.339C288.126 360.926 287.382 360.712 286.624 360.727C285.324 360.727 284.757 361.235 284.757 361.922C284.757 363.864 289.433 362.4 289.433 365.164C289.433 366.419 288.327 367.226 286.445 367.226C285.398 367.25 284.37 366.936 283.517 366.329Z" fill="#263238"/>
<path d="M301.654 359.95L298.935 367.151H298.023L295.812 361.25L293.541 367.151H292.63L289.836 359.95H290.762L293.033 366.076L295.349 359.95H296.186L298.486 366.076L300.772 359.95H301.654Z" fill="#263238"/>
<path d="M302.192 363.55C302.192 362.823 302.407 362.113 302.811 361.508C303.215 360.904 303.789 360.433 304.46 360.155C305.132 359.877 305.871 359.804 306.584 359.946C307.297 360.087 307.952 360.437 308.466 360.951C308.98 361.465 309.33 362.12 309.471 362.833C309.613 363.546 309.54 364.285 309.262 364.957C308.984 365.628 308.513 366.202 307.909 366.606C307.304 367.01 306.594 367.225 305.867 367.225C305.38 367.242 304.894 367.158 304.441 366.98C303.987 366.801 303.576 366.531 303.231 366.186C302.886 365.841 302.616 365.43 302.437 364.976C302.259 364.523 302.175 364.037 302.192 363.55ZM308.541 363.55C308.518 363.023 308.34 362.515 308.03 362.089C307.72 361.662 307.291 361.336 306.797 361.151C306.303 360.966 305.766 360.931 305.252 361.049C304.738 361.167 304.27 361.434 303.907 361.815C303.543 362.197 303.3 362.678 303.207 363.197C303.114 363.716 303.176 364.251 303.385 364.735C303.594 365.219 303.941 365.631 304.382 365.92C304.823 366.209 305.339 366.361 305.867 366.359C306.231 366.366 306.594 366.297 306.93 366.157C307.267 366.016 307.571 365.807 307.822 365.543C308.074 365.279 308.267 364.965 308.391 364.622C308.515 364.279 308.566 363.914 308.541 363.55Z" fill="#263238"/>
<path d="M315.145 359.89V360.831H314.906C314.564 360.815 314.223 360.874 313.906 361.004C313.59 361.135 313.306 361.333 313.075 361.586C312.844 361.838 312.671 362.138 312.57 362.465C312.468 362.791 312.439 363.137 312.485 363.476V367.151H311.514V359.95H312.44V361.354C312.692 360.867 313.085 360.467 313.567 360.206C314.049 359.945 314.599 359.835 315.145 359.89Z" fill="#263238"/>
<path d="M323.406 357.066V367.226H322.48V365.806C322.19 366.279 321.78 366.666 321.292 366.928C320.804 367.19 320.255 367.319 319.701 367.3C318.769 367.241 317.894 366.828 317.255 366.147C316.616 365.466 316.26 364.567 316.26 363.633C316.26 362.698 316.616 361.799 317.255 361.118C317.894 360.437 318.769 360.024 319.701 359.965C320.248 359.953 320.788 360.084 321.268 360.346C321.747 360.609 322.15 360.992 322.435 361.459V357.066H323.406ZM322.45 363.625C322.427 363.098 322.249 362.59 321.939 362.163C321.629 361.737 321.2 361.411 320.706 361.226C320.212 361.041 319.675 361.006 319.161 361.124C318.647 361.242 318.179 361.508 317.816 361.89C317.452 362.272 317.209 362.753 317.116 363.272C317.023 363.791 317.085 364.326 317.294 364.81C317.503 365.294 317.85 365.706 318.291 365.995C318.732 366.284 319.248 366.436 319.776 366.434C320.147 366.442 320.516 366.371 320.858 366.226C321.201 366.081 321.508 365.865 321.761 365.593C322.014 365.321 322.206 364.998 322.324 364.646C322.443 364.293 322.486 363.92 322.45 363.55V363.625Z" fill="#263238"/>
</g>
<path opacity="0.2" d="M445.092 413.839H249.617V447.304H445.092V413.839Z" fill="black"/>
<g opacity="0.5">
<path d="M297.157 398.465H293.959L293.272 399.959H292.645L295.259 394.237H295.857L298.471 399.959H297.844L297.157 398.465ZM296.933 397.972L295.558 394.895L294.184 397.972H296.933Z" fill="black"/>
<path d="M299.308 393.924H299.89V399.989H299.308V393.924Z" fill="black"/>
<path d="M303.685 395.657V396.224H303.536C303.327 396.207 303.117 396.236 302.922 396.311C302.726 396.385 302.55 396.503 302.406 396.655C302.262 396.808 302.155 396.99 302.092 397.19C302.029 397.39 302.012 397.601 302.042 397.808V400.004H301.459V395.702H302.027V396.538C302.177 396.237 302.417 395.989 302.714 395.831C303.012 395.673 303.351 395.612 303.685 395.657Z" fill="black"/>
<path d="M308.436 398.017H304.776C304.787 398.227 304.84 398.432 304.932 398.621C305.023 398.809 305.151 398.978 305.308 399.117C305.465 399.256 305.648 399.363 305.846 399.43C306.045 399.498 306.255 399.526 306.464 399.511C306.713 399.52 306.96 399.475 307.189 399.38C307.419 399.284 307.625 399.141 307.794 398.959L308.108 399.332C307.799 399.656 307.401 399.882 306.964 399.981C306.528 400.08 306.072 400.047 305.653 399.888C305.235 399.728 304.873 399.448 304.613 399.084C304.354 398.719 304.208 398.286 304.193 397.838C304.179 397.554 304.223 397.27 304.323 397.004C304.423 396.738 304.576 396.495 304.774 396.291C304.971 396.086 305.208 395.924 305.471 395.815C305.733 395.706 306.016 395.652 306.3 395.657C306.584 395.65 306.867 395.702 307.129 395.811C307.392 395.919 307.63 396.081 307.826 396.286C308.023 396.492 308.175 396.736 308.272 397.003C308.37 397.27 308.41 397.554 308.391 397.838C308.391 397.838 308.436 397.958 308.436 398.017ZM304.836 397.584H307.824C307.824 397.188 307.666 396.808 307.386 396.528C307.106 396.248 306.726 396.09 306.33 396.09C305.933 396.09 305.553 396.248 305.273 396.528C304.993 396.808 304.836 397.188 304.836 397.584Z" fill="black"/>
<path d="M312.754 397.405V400.064H312.246V399.392C312.087 399.638 311.864 399.835 311.6 399.961C311.336 400.088 311.043 400.139 310.752 400.109C309.78 400.109 309.258 399.601 309.258 398.854C309.258 398.107 309.676 397.629 310.916 397.629H312.246V397.375C312.246 396.643 311.827 396.239 311.02 396.239C310.477 396.219 309.945 396.4 309.526 396.747L309.273 396.314C309.768 395.919 310.387 395.712 311.02 395.731C311.252 395.692 311.489 395.707 311.713 395.776C311.937 395.845 312.142 395.966 312.311 396.129C312.48 396.292 312.608 396.492 312.684 396.714C312.761 396.936 312.785 397.172 312.754 397.405ZM312.186 398.779V398.062H310.826C309.99 398.062 309.721 398.391 309.721 398.839C309.721 399.287 310.124 399.646 310.811 399.646C311.121 399.669 311.429 399.59 311.689 399.42C311.948 399.249 312.144 398.998 312.246 398.705L312.186 398.779Z" fill="black"/>
<path d="M318.222 393.924V399.989H317.669V399.138C317.499 399.423 317.256 399.657 316.964 399.815C316.672 399.973 316.342 400.049 316.011 400.034C315.462 399.989 314.949 399.739 314.576 399.333C314.203 398.928 313.996 398.397 313.996 397.846C313.996 397.294 314.203 396.763 314.576 396.358C314.949 395.953 315.462 395.702 316.011 395.657C316.334 395.648 316.655 395.722 316.942 395.871C317.23 396.02 317.475 396.239 317.654 396.508V393.924H318.222ZM317.654 397.838C317.64 397.526 317.534 397.224 317.349 396.971C317.165 396.718 316.91 396.525 316.617 396.415C316.324 396.306 316.005 396.285 315.7 396.355C315.395 396.424 315.118 396.582 314.901 396.809C314.685 397.035 314.54 397.319 314.484 397.627C314.429 397.935 314.464 398.253 314.587 398.541C314.71 398.828 314.915 399.074 315.176 399.246C315.437 399.419 315.743 399.511 316.056 399.511C316.278 399.525 316.501 399.49 316.709 399.411C316.917 399.331 317.106 399.208 317.263 399.05C317.42 398.891 317.541 398.701 317.619 398.493C317.697 398.284 317.729 398.06 317.714 397.838H317.654Z" fill="black"/>
<path d="M323.525 395.687L321.374 400.512C321.015 401.349 320.552 401.618 319.88 401.618C319.494 401.628 319.12 401.489 318.834 401.229L319.103 400.796C319.313 401.006 319.598 401.124 319.895 401.125C320.283 401.125 320.537 400.945 320.791 400.393L320.971 399.989L319.043 395.687H319.716L321.344 399.347L322.958 395.687H323.525Z" fill="black"/>
<path d="M329.741 397.405V400.064H329.188V399.392C329.03 399.638 328.806 399.835 328.542 399.961C328.279 400.088 327.985 400.139 327.694 400.109C326.723 400.109 326.2 399.601 326.2 398.854C326.2 398.107 326.619 397.629 327.859 397.629H329.218V397.375C329.218 396.643 328.815 396.239 328.008 396.239C327.464 396.219 326.933 396.4 326.514 396.747L326.245 396.314C326.746 395.919 327.37 395.713 328.008 395.731C328.239 395.692 328.476 395.707 328.701 395.776C328.925 395.845 329.13 395.966 329.298 396.129C329.467 396.292 329.595 396.492 329.672 396.714C329.749 396.936 329.773 397.172 329.741 397.405ZM329.158 398.779V398.062H327.814C326.977 398.062 326.708 398.391 326.708 398.839C326.708 399.287 327.112 399.646 327.799 399.646C328.097 399.658 328.391 399.572 328.636 399.402C328.881 399.233 329.065 398.988 329.158 398.705V398.779Z" fill="black"/>
<path d="M340.632 397.494V399.989H340.064V397.554C340.064 396.642 339.601 396.179 338.824 396.179C338.624 396.163 338.423 396.191 338.234 396.261C338.046 396.33 337.875 396.44 337.733 396.582C337.591 396.724 337.481 396.895 337.412 397.083C337.342 397.272 337.315 397.473 337.33 397.673V399.929H336.763V397.554C336.763 396.642 336.299 396.179 335.508 396.179C335.307 396.163 335.106 396.191 334.918 396.261C334.729 396.33 334.558 396.44 334.416 396.582C334.274 396.724 334.165 396.895 334.095 397.083C334.026 397.272 333.998 397.473 334.014 397.673V399.929H333.431V395.626H333.984V396.418C334.148 396.15 334.383 395.933 334.662 395.788C334.941 395.643 335.254 395.577 335.567 395.596C335.881 395.572 336.194 395.647 336.462 395.81C336.73 395.974 336.94 396.218 337.061 396.508C337.235 396.215 337.486 395.975 337.786 395.815C338.086 395.654 338.425 395.579 338.764 395.596C339.023 395.55 339.288 395.568 339.538 395.647C339.788 395.727 340.014 395.866 340.198 396.053C340.382 396.24 340.518 396.469 340.593 396.72C340.669 396.971 340.682 397.236 340.632 397.494Z" fill="black"/>
<path d="M345.921 398.017H342.32C342.351 398.44 342.547 398.834 342.865 399.113C343.184 399.393 343.6 399.536 344.023 399.511C344.27 399.52 344.515 399.476 344.742 399.38C344.969 399.285 345.173 399.141 345.338 398.958L345.667 399.332C345.457 399.561 345.2 399.742 344.914 399.863C344.628 399.984 344.319 400.043 344.008 400.034C343.712 400.053 343.416 400.01 343.137 399.907C342.859 399.804 342.605 399.644 342.393 399.437C342.18 399.23 342.013 398.981 341.903 398.705C341.793 398.43 341.741 398.134 341.752 397.838C341.752 397.283 341.973 396.751 342.365 396.359C342.757 395.966 343.289 395.746 343.844 395.746C344.399 395.746 344.931 395.966 345.323 396.359C345.715 396.751 345.936 397.283 345.936 397.838C345.936 397.838 345.921 397.957 345.921 398.017ZM342.32 397.584H345.383C345.383 397.178 345.222 396.788 344.934 396.501C344.647 396.214 344.258 396.052 343.852 396.052C343.445 396.052 343.056 396.214 342.769 396.501C342.482 396.788 342.32 397.178 342.32 397.584Z" fill="black"/>
<path d="M354.227 397.494V399.989H353.645V397.554C353.645 396.642 353.197 396.179 352.42 396.179C352.219 396.161 352.017 396.187 351.827 396.255C351.637 396.324 351.465 396.433 351.323 396.576C351.18 396.719 351.071 396.891 351.002 397.08C350.933 397.27 350.907 397.472 350.926 397.673V399.929H350.343V397.554C350.343 396.642 349.895 396.179 349.103 396.179C348.902 396.161 348.7 396.187 348.51 396.255C348.321 396.324 348.148 396.433 348.006 396.576C347.863 396.719 347.754 396.891 347.685 397.08C347.617 397.27 347.591 397.472 347.609 397.673V399.929H347.026V395.626H347.579V396.418C347.743 396.149 347.977 395.931 348.256 395.786C348.535 395.641 348.849 395.575 349.163 395.596C349.476 395.572 349.789 395.647 350.057 395.81C350.325 395.974 350.535 396.218 350.657 396.508C350.831 396.215 351.081 395.975 351.381 395.815C351.682 395.654 352.02 395.579 352.36 395.596C352.618 395.55 352.884 395.568 353.133 395.647C353.383 395.727 353.61 395.866 353.794 396.053C353.978 396.24 354.113 396.469 354.189 396.72C354.264 396.971 354.278 397.236 354.227 397.494Z" fill="black"/>
<path d="M360.174 397.838C360.188 398.125 360.143 398.412 360.042 398.681C359.94 398.95 359.785 399.196 359.584 399.402C359.384 399.608 359.143 399.77 358.877 399.879C358.61 399.988 358.325 400.041 358.037 400.034C357.706 400.049 357.376 399.973 357.084 399.815C356.792 399.657 356.549 399.423 356.379 399.138V399.989H355.811V393.924H356.394V396.508C356.572 396.238 356.817 396.018 357.105 395.869C357.392 395.72 357.713 395.647 358.037 395.657C358.324 395.648 358.609 395.699 358.876 395.806C359.142 395.913 359.383 396.075 359.583 396.279C359.784 396.484 359.94 396.729 360.042 396.997C360.143 397.265 360.188 397.552 360.174 397.838ZM359.591 397.838C359.576 397.526 359.47 397.224 359.286 396.971C359.102 396.718 358.847 396.525 358.554 396.415C358.261 396.306 357.942 396.285 357.637 396.355C357.332 396.424 357.055 396.582 356.838 396.809C356.622 397.035 356.477 397.319 356.421 397.627C356.365 397.935 356.401 398.253 356.524 398.541C356.647 398.828 356.852 399.074 357.113 399.246C357.374 399.419 357.68 399.511 357.993 399.511C358.21 399.516 358.426 399.475 358.627 399.392C358.828 399.308 359.01 399.184 359.16 399.027C359.311 398.869 359.426 398.682 359.501 398.478C359.575 398.273 359.606 398.055 359.591 397.838Z" fill="black"/>
<path d="M365.119 398.017H361.548C361.559 398.226 361.612 398.431 361.704 398.62C361.795 398.809 361.923 398.978 362.08 399.116C362.237 399.255 362.42 399.362 362.618 399.43C362.817 399.497 363.027 399.525 363.236 399.511C363.485 399.51 363.73 399.455 363.955 399.35C364.179 399.244 364.378 399.089 364.536 398.898L364.865 399.272C364.556 399.596 364.158 399.822 363.722 399.92C363.285 400.019 362.829 399.987 362.41 399.827C361.992 399.667 361.63 399.388 361.371 399.023C361.111 398.658 360.965 398.225 360.95 397.778C360.936 397.494 360.98 397.21 361.08 396.944C361.18 396.677 361.333 396.435 361.531 396.23C361.728 396.026 361.965 395.864 362.228 395.755C362.491 395.646 362.773 395.592 363.057 395.596C363.341 395.589 363.623 395.642 363.885 395.75C364.147 395.859 364.383 396.021 364.579 396.227C364.774 396.432 364.925 396.676 365.02 396.943C365.116 397.21 365.155 397.495 365.134 397.778L365.119 398.017ZM361.518 397.583H364.506C364.506 397.187 364.349 396.807 364.069 396.527C363.788 396.247 363.408 396.089 363.012 396.089C362.616 396.089 362.236 396.247 361.956 396.527C361.676 396.807 361.518 397.187 361.518 397.583Z" fill="black"/>
<path d="M368.48 395.656V396.224H368.346C368.137 396.206 367.927 396.236 367.732 396.31C367.536 396.385 367.36 396.503 367.216 396.655C367.072 396.807 366.965 396.99 366.902 397.19C366.839 397.389 366.822 397.601 366.852 397.808V400.004H366.269V395.701H366.822V396.538C366.973 396.238 367.214 395.992 367.511 395.834C367.808 395.676 368.147 395.614 368.48 395.656Z" fill="black"/>
<path d="M372.245 395.731C372.245 395.134 371.767 394.73 370.93 394.73C370.636 394.714 370.342 394.764 370.07 394.878C369.798 394.992 369.556 395.166 369.362 395.388L368.928 395.059C369.183 394.771 369.5 394.546 369.854 394.398C370.209 394.251 370.592 394.185 370.975 394.207C372.126 394.207 372.858 394.76 372.858 395.701C372.858 397.091 371.364 397.195 371.364 398.331H370.751C370.751 396.926 372.245 396.792 372.245 395.731ZM370.632 399.601C370.65 399.501 370.703 399.412 370.781 399.347C370.859 399.283 370.956 399.247 371.057 399.247C371.158 399.247 371.256 399.283 371.334 399.347C371.412 399.412 371.465 399.501 371.483 399.601C371.495 399.663 371.493 399.728 371.477 399.789C371.461 399.851 371.432 399.908 371.391 399.957C371.35 400.006 371.299 400.046 371.242 400.073C371.184 400.1 371.121 400.114 371.057 400.114C370.994 400.114 370.931 400.1 370.873 400.073C370.816 400.046 370.765 400.006 370.724 399.957C370.683 399.908 370.654 399.851 370.638 399.789C370.622 399.728 370.62 399.663 370.632 399.601Z" fill="black"/>
<path d="M376.294 394.267H377.623V398.898H380.492V399.974H376.294V394.267Z" fill="black"/>
<path d="M380.791 397.792C380.761 397.308 380.877 396.827 381.124 396.409C381.371 395.992 381.738 395.659 382.177 395.453C382.615 395.246 383.106 395.177 383.585 395.252C384.064 395.328 384.509 395.546 384.862 395.878C385.216 396.21 385.462 396.64 385.568 397.113C385.674 397.586 385.636 398.08 385.458 398.531C385.28 398.982 384.97 399.369 384.57 399.643C384.169 399.916 383.696 400.062 383.211 400.063C382.9 400.084 382.589 400.04 382.296 399.935C382.003 399.83 381.735 399.666 381.508 399.453C381.281 399.24 381.1 398.983 380.977 398.697C380.853 398.412 380.79 398.104 380.791 397.792ZM384.332 397.792C384.314 397.575 384.234 397.368 384.101 397.196C383.967 397.024 383.787 396.894 383.581 396.823C383.376 396.752 383.154 396.742 382.943 396.795C382.731 396.848 382.54 396.961 382.392 397.121C382.245 397.28 382.146 397.48 382.11 397.694C382.073 397.909 382.1 398.129 382.187 398.329C382.274 398.529 382.417 398.698 382.599 398.818C382.781 398.938 382.993 399.002 383.211 399.002C383.367 399.005 383.521 398.975 383.664 398.914C383.808 398.853 383.936 398.762 384.042 398.648C384.148 398.534 384.228 398.399 384.278 398.251C384.328 398.104 384.346 397.947 384.332 397.792Z" fill="black"/>
<path d="M391.024 395.582V399.257C391.065 399.587 391.029 399.923 390.919 400.237C390.808 400.55 390.626 400.834 390.387 401.066C390.148 401.298 389.859 401.471 389.542 401.572C389.224 401.673 388.888 401.699 388.559 401.648C387.791 401.677 387.032 401.463 386.393 401.035L386.901 400.124C387.337 400.436 387.859 400.608 388.395 400.617C389.291 400.617 389.695 400.213 389.695 399.421V399.227C389.516 399.413 389.3 399.559 389.06 399.654C388.82 399.749 388.563 399.792 388.305 399.78C388.011 399.805 387.714 399.768 387.435 399.672C387.155 399.576 386.898 399.424 386.681 399.224C386.463 399.024 386.289 398.78 386.171 398.51C386.052 398.239 385.99 397.947 385.99 397.651C385.99 397.355 386.052 397.063 386.171 396.792C386.289 396.522 386.463 396.279 386.681 396.079C386.898 395.878 387.155 395.726 387.435 395.63C387.714 395.534 388.011 395.497 388.305 395.522C388.586 395.5 388.869 395.545 389.129 395.654C389.389 395.763 389.619 395.933 389.799 396.15V395.582H391.024ZM389.77 397.659C389.774 397.509 389.747 397.36 389.69 397.221C389.633 397.083 389.548 396.958 389.439 396.855C389.33 396.752 389.201 396.673 389.06 396.624C388.919 396.574 388.768 396.555 388.619 396.568C388.466 396.55 388.311 396.565 388.164 396.611C388.017 396.657 387.882 396.734 387.767 396.836C387.652 396.938 387.56 397.064 387.497 397.204C387.434 397.345 387.401 397.497 387.401 397.651C387.401 397.805 387.434 397.957 387.497 398.098C387.56 398.238 387.652 398.364 387.767 398.466C387.882 398.568 388.017 398.645 388.164 398.691C388.311 398.738 388.466 398.752 388.619 398.734C388.767 398.747 388.916 398.728 389.056 398.68C389.196 398.631 389.325 398.553 389.433 398.452C389.542 398.351 389.628 398.228 389.686 398.091C389.744 397.954 389.772 397.807 389.77 397.659Z" fill="black"/>
<path d="M394.416 394.267C394.418 394.167 394.44 394.068 394.481 393.977C394.523 393.886 394.582 393.804 394.657 393.737C394.731 393.67 394.818 393.618 394.913 393.586C395.008 393.554 395.108 393.542 395.208 393.55C395.306 393.54 395.404 393.549 395.498 393.579C395.592 393.608 395.679 393.657 395.753 393.721C395.827 393.786 395.888 393.865 395.93 393.954C395.972 394.042 395.996 394.139 396 394.237C396 394.447 395.916 394.648 395.768 394.797C395.619 394.945 395.418 395.029 395.208 395.029C394.998 395.029 394.796 394.945 394.648 394.797C394.499 394.648 394.416 394.447 394.416 394.237V394.267ZM394.565 395.582H395.835V400.064H394.565V395.582Z" fill="black"/>
<path d="M401.498 397.405V399.93H400.228V397.614C400.228 396.897 399.899 396.568 399.331 396.568C398.764 396.568 398.271 396.942 398.271 397.748V399.93H397.001V395.448H398.226V395.971C398.418 395.772 398.652 395.617 398.909 395.516C399.167 395.416 399.444 395.372 399.72 395.388C399.978 395.375 400.236 395.42 400.474 395.521C400.712 395.621 400.924 395.774 401.095 395.968C401.266 396.162 401.391 396.391 401.46 396.64C401.53 396.889 401.543 397.15 401.498 397.405Z" fill="black"/>
</g>
<path d="M445.092 411.792H249.617V445.258H445.092V411.792Z" fill="#74BF44"/>
<path d="M322.106 433.724L319.716 430.273H318.999H316.16V433.754H314.517V422.295H318.999C321.987 422.295 323.765 423.789 323.765 426.299C323.803 427.094 323.577 427.879 323.123 428.532C322.669 429.186 322.013 429.672 321.255 429.914L323.974 433.754L322.106 433.724ZM322.106 426.254C322.106 424.611 321.016 423.684 318.909 423.684H316.13V428.839H318.909C320.971 428.854 322.062 427.897 322.062 426.269L322.106 426.254Z" fill="white"/>
<path d="M333.939 429.914H326.902C327.013 430.653 327.396 431.323 327.977 431.794C328.558 432.264 329.294 432.499 330.04 432.454C330.509 432.47 330.976 432.386 331.409 432.205C331.842 432.025 332.231 431.753 332.549 431.408L333.416 432.424C332.777 433.073 331.963 433.523 331.074 433.722C330.185 433.92 329.258 433.858 328.403 433.543C327.548 433.227 326.803 432.672 326.256 431.944C325.709 431.215 325.383 430.344 325.318 429.436C325.287 428.849 325.378 428.262 325.585 427.712C325.791 427.163 326.109 426.661 326.519 426.24C326.929 425.819 327.421 425.488 327.966 425.266C328.51 425.045 329.094 424.938 329.681 424.954C330.265 424.938 330.846 425.044 331.387 425.266C331.927 425.488 332.415 425.821 332.819 426.244C333.223 426.666 333.534 427.168 333.732 427.718C333.93 428.268 334.011 428.853 333.969 429.436C333.969 429.57 333.954 429.764 333.939 429.914ZM326.902 428.778H332.46C332.388 428.091 332.065 427.455 331.552 426.992C331.038 426.529 330.372 426.273 329.681 426.273C328.99 426.273 328.323 426.529 327.81 426.992C327.297 427.455 326.973 428.091 326.902 428.778Z" fill="white"/>
<path d="M344.457 425.058V432.528C344.457 435.591 342.888 437.01 339.975 437.01C338.488 437.074 337.025 436.62 335.836 435.725L336.583 434.515C337.539 435.257 338.719 435.653 339.93 435.635C341.977 435.635 342.918 434.694 342.918 432.722V432.035C342.531 432.479 342.05 432.83 341.509 433.062C340.969 433.295 340.383 433.404 339.795 433.38C338.682 433.38 337.614 432.937 336.827 432.15C336.039 431.363 335.597 430.295 335.597 429.181C335.597 428.068 336.039 427 336.827 426.213C337.614 425.426 338.682 424.983 339.795 424.983C340.41 424.965 341.021 425.09 341.579 425.349C342.136 425.609 342.626 425.995 343.007 426.477V425.133L344.457 425.058ZM342.963 429.166C342.995 428.57 342.849 427.977 342.541 427.464C342.233 426.952 341.779 426.543 341.237 426.292C340.694 426.04 340.089 425.957 339.499 426.053C338.909 426.149 338.361 426.42 337.927 426.83C337.492 427.241 337.191 427.772 337.062 428.356C336.933 428.94 336.981 429.549 337.202 430.104C337.422 430.66 337.804 431.137 338.299 431.473C338.793 431.809 339.377 431.989 339.975 431.99C340.357 432.013 340.74 431.956 341.099 431.824C341.459 431.692 341.787 431.487 342.063 431.221C342.34 430.956 342.558 430.637 342.705 430.283C342.852 429.93 342.925 429.549 342.918 429.166H342.963Z" fill="white"/>
<path d="M347.176 422.369C347.178 422.232 347.207 422.096 347.261 421.97C347.315 421.844 347.394 421.73 347.493 421.634C347.591 421.539 347.708 421.463 347.835 421.412C347.963 421.362 348.099 421.337 348.237 421.339C348.381 421.321 348.528 421.334 348.667 421.378C348.807 421.421 348.935 421.494 349.044 421.59C349.153 421.687 349.241 421.806 349.3 421.939C349.36 422.072 349.391 422.216 349.391 422.362C349.391 422.508 349.36 422.652 349.3 422.785C349.241 422.918 349.153 423.037 349.044 423.133C348.935 423.23 348.807 423.303 348.667 423.346C348.528 423.389 348.381 423.403 348.237 423.385C348.1 423.389 347.964 423.366 347.836 423.317C347.709 423.268 347.592 423.194 347.493 423.099C347.395 423.005 347.316 422.892 347.261 422.766C347.207 422.641 347.178 422.506 347.176 422.369ZM347.46 425.059H349.028V433.724H347.46V425.059Z" fill="white"/>
<path d="M350.926 432.812L351.583 431.572C352.473 432.15 353.51 432.461 354.571 432.468C356.065 432.468 356.633 432.02 356.633 431.288C356.633 429.346 351.15 431.034 351.15 427.568C351.15 426.074 352.54 424.969 354.766 424.969C355.868 424.951 356.955 425.224 357.918 425.76L357.246 427C356.5 426.531 355.632 426.292 354.751 426.313C353.376 426.313 352.704 426.821 352.704 427.508C352.704 429.555 358.202 427.882 358.202 431.258C358.202 432.752 356.708 433.828 354.452 433.828C353.202 433.846 351.975 433.493 350.926 432.812Z" fill="white"/>
<path d="M365.104 433.261C364.56 433.676 363.89 433.892 363.206 433.873C362.838 433.915 362.464 433.874 362.114 433.753C361.763 433.632 361.444 433.433 361.18 433.173C360.916 432.912 360.715 432.595 360.589 432.245C360.464 431.896 360.419 431.523 360.457 431.154V426.388H358.963V425.103H360.457V423.206H361.951V425.103H364.536V426.388H362.041V431.094C362.006 431.287 362.015 431.484 362.069 431.672C362.123 431.86 362.219 432.033 362.351 432.178C362.482 432.323 362.646 432.435 362.828 432.506C363.01 432.577 363.206 432.605 363.401 432.588C363.842 432.593 364.273 432.451 364.626 432.185L365.104 433.261Z" fill="white"/>
<path d="M374.516 429.915H367.524C367.635 430.656 368.021 431.329 368.605 431.8C369.189 432.27 369.928 432.504 370.677 432.454C371.144 432.472 371.609 432.388 372.04 432.207C372.471 432.026 372.857 431.754 373.172 431.409L374.038 432.425C373.401 433.075 372.589 433.527 371.7 433.727C370.811 433.926 369.883 433.864 369.029 433.549C368.175 433.233 367.43 432.676 366.885 431.947C366.339 431.217 366.017 430.345 365.956 429.437C365.925 428.85 366.015 428.263 366.222 427.713C366.428 427.163 366.747 426.662 367.156 426.241C367.566 425.82 368.059 425.489 368.603 425.267C369.147 425.046 369.731 424.939 370.318 424.955C370.902 424.941 371.482 425.049 372.021 425.272C372.561 425.495 373.048 425.828 373.451 426.249C373.855 426.671 374.166 427.172 374.364 427.721C374.563 428.27 374.646 428.854 374.606 429.437C374.59 429.598 374.56 429.758 374.516 429.915ZM367.524 428.779H373.097C373.011 428.101 372.68 427.478 372.167 427.026C371.654 426.574 370.994 426.325 370.311 426.325C369.627 426.325 368.967 426.574 368.454 427.026C367.941 427.478 367.611 428.101 367.524 428.779Z" fill="white"/>
<path d="M381.403 424.969V426.463H381.045C380.656 426.435 380.267 426.496 379.905 426.64C379.543 426.785 379.219 427.009 378.956 427.296C378.693 427.584 378.498 427.927 378.387 428.3C378.275 428.673 378.249 429.066 378.311 429.451V433.768H376.742V425.103H378.236V426.597C378.552 426.05 379.018 425.606 379.58 425.317C380.142 425.028 380.775 424.907 381.403 424.969Z" fill="white"/>
<g opacity="0.6">
<path d="M313.128 183.18L313.8 181.775C314.959 182.747 316.426 183.276 317.938 183.269C320.105 183.269 321.031 182.433 321.031 181.342C321.031 178.354 313.441 180.207 313.441 175.56C313.441 173.618 314.935 171.975 318.237 171.975C319.66 171.952 321.059 172.335 322.271 173.08L321.673 174.574C320.647 173.917 319.456 173.565 318.237 173.558C316.101 173.558 315.249 174.455 315.249 175.545C315.249 178.533 322.854 176.681 322.854 181.297C322.854 183.21 321.36 184.853 317.998 184.853C316.228 184.89 314.502 184.297 313.128 183.18Z" fill="#263238"/>
<path d="M324.856 172.169C324.858 172.019 324.889 171.87 324.949 171.732C325.009 171.594 325.096 171.47 325.204 171.365C325.312 171.261 325.441 171.179 325.581 171.125C325.721 171.071 325.871 171.045 326.021 171.049C326.169 171.043 326.318 171.066 326.457 171.118C326.596 171.17 326.723 171.249 326.832 171.35C326.94 171.452 327.027 171.574 327.088 171.709C327.149 171.845 327.183 171.991 327.186 172.139C327.186 172.448 327.064 172.745 326.845 172.963C326.626 173.182 326.33 173.305 326.021 173.305C325.712 173.305 325.416 173.182 325.197 172.963C324.978 172.745 324.856 172.448 324.856 172.139V172.169ZM325.155 175.157H326.888V184.659H325.155V175.157Z" fill="#263238"/>
<path d="M339.243 175.112V183.314C339.243 186.676 337.54 188.2 334.328 188.2C332.715 188.251 331.134 187.75 329.846 186.78L330.667 185.451C331.708 186.274 333.001 186.712 334.328 186.691C336.569 186.691 337.584 185.645 337.584 183.494V182.747C337.162 183.235 336.635 183.622 336.043 183.881C335.451 184.139 334.809 184.262 334.163 184.241C333.538 184.276 332.912 184.184 332.323 183.969C331.735 183.754 331.197 183.422 330.741 182.992C330.286 182.561 329.923 182.043 329.675 181.468C329.427 180.893 329.3 180.273 329.3 179.646C329.3 179.02 329.427 178.4 329.675 177.825C329.923 177.25 330.286 176.731 330.741 176.301C331.197 175.871 331.735 175.539 332.323 175.324C332.912 175.109 333.538 175.017 334.163 175.052C334.823 175.018 335.483 175.135 336.091 175.394C336.7 175.653 337.241 176.047 337.674 176.546V175.052L339.243 175.112ZM337.569 179.594C337.602 178.941 337.439 178.293 337.1 177.734C336.761 177.175 336.262 176.73 335.668 176.457C335.074 176.184 334.411 176.095 333.766 176.202C333.121 176.309 332.523 176.607 332.049 177.057C331.574 177.508 331.246 178.09 331.106 178.729C330.966 179.367 331.02 180.033 331.262 180.641C331.504 181.248 331.923 181.769 332.464 182.137C333.005 182.504 333.644 182.701 334.298 182.702C334.725 182.739 335.156 182.687 335.562 182.548C335.968 182.409 336.34 182.187 336.655 181.896C336.971 181.605 337.221 181.251 337.392 180.857C337.562 180.463 337.648 180.038 337.644 179.609L337.569 179.594Z" fill="#263238"/>
<path d="M351.554 179.146V184.614H349.821V179.281C349.821 177.413 348.894 176.502 347.266 176.502C346.852 176.475 346.438 176.539 346.052 176.69C345.666 176.842 345.318 177.076 345.032 177.377C344.747 177.678 344.532 178.038 344.401 178.431C344.271 178.825 344.229 179.243 344.278 179.654V184.555H342.56V175.053H344.218V176.547C344.626 176.04 345.15 175.64 345.746 175.38C346.341 175.12 346.991 175.008 347.639 175.053C348.178 175.016 348.719 175.099 349.222 175.295C349.726 175.49 350.18 175.794 350.554 176.184C350.927 176.575 351.21 177.042 351.383 177.554C351.556 178.066 351.614 178.609 351.554 179.146Z" fill="#263238"/>
<path d="M368.42 175.112V184.614H366.792V183.12C366.413 183.609 365.922 184 365.36 184.26C364.799 184.52 364.183 184.641 363.565 184.614C363.009 184.671 362.448 184.603 361.922 184.415C361.396 184.226 360.92 183.923 360.527 183.525C360.134 183.128 359.835 182.648 359.653 182.121C359.47 181.593 359.408 181.031 359.471 180.476V175.008H361.189V180.282C361.189 182.134 362.131 183.075 363.759 183.075C364.173 183.105 364.589 183.043 364.977 182.892C365.364 182.742 365.713 182.508 365.999 182.206C366.285 181.905 366.5 181.543 366.629 181.149C366.759 180.754 366.799 180.335 366.747 179.923V175.008L368.42 175.112Z" fill="#263238"/>
<path d="M381.538 179.864C381.572 180.505 381.471 181.147 381.243 181.747C381.015 182.347 380.664 182.894 380.212 183.351C379.761 183.808 379.219 184.165 378.622 184.401C378.024 184.637 377.384 184.745 376.742 184.719C376.112 184.744 375.484 184.622 374.908 184.363C374.333 184.103 373.825 183.714 373.426 183.225V188.126H371.708V175.158H373.351V176.652C373.745 176.132 374.26 175.715 374.85 175.436C375.441 175.158 376.09 175.026 376.742 175.053C377.381 175.025 378.018 175.131 378.613 175.363C379.209 175.595 379.749 175.949 380.2 176.402C380.651 176.854 381.003 177.396 381.234 177.992C381.464 178.588 381.568 179.225 381.538 179.864ZM379.805 179.864C379.776 179.239 379.564 178.637 379.196 178.132C378.828 177.626 378.32 177.24 377.735 177.02C377.149 176.8 376.513 176.757 375.903 176.896C375.293 177.034 374.738 177.348 374.305 177.799C373.872 178.25 373.581 178.818 373.467 179.433C373.354 180.048 373.423 180.683 373.667 181.258C373.91 181.834 374.317 182.326 374.837 182.673C375.357 183.02 375.968 183.207 376.593 183.21C377.029 183.219 377.462 183.138 377.864 182.971C378.267 182.805 378.631 182.556 378.933 182.242C379.235 181.927 379.468 181.553 379.618 181.144C379.768 180.735 379.832 180.299 379.805 179.864Z" fill="#263238"/>
</g>
<path d="M445.092 254.787H249.617V288.253H445.092V254.787Z" fill="white"/>
<g opacity="0.4">
<path d="M260.314 266.067H261.33V274.777H266.694V275.659H260.314V266.067Z" fill="#263238"/>
<path d="M273.641 271.192V275.674H272.715V274.554C272.443 274.953 272.071 275.274 271.635 275.484C271.2 275.694 270.717 275.785 270.235 275.749C268.606 275.749 267.605 274.897 267.605 273.642C267.605 272.387 268.308 271.61 270.384 271.61H272.67V271.177C272.67 269.937 271.968 269.265 270.623 269.265C269.75 269.253 268.902 269.555 268.233 270.116L267.785 269.384C268.638 268.723 269.694 268.38 270.773 268.413C271.153 268.367 271.538 268.407 271.901 268.529C272.264 268.651 272.595 268.852 272.87 269.119C273.145 269.385 273.357 269.709 273.49 270.068C273.624 270.427 273.675 270.811 273.641 271.192ZM272.67 273.493V272.313H270.414C269.01 272.313 268.562 272.865 268.562 273.612C268.562 274.359 269.234 274.957 270.384 274.957C270.871 274.987 271.355 274.861 271.766 274.598C272.177 274.335 272.494 273.948 272.67 273.493Z" fill="#263238"/>
<path d="M275.284 274.897L275.718 274.135C276.471 274.661 277.368 274.942 278.287 274.941C279.662 274.941 280.215 274.478 280.215 273.761C280.215 271.879 275.553 273.358 275.553 270.519C275.553 269.339 276.554 268.457 278.392 268.457C279.289 268.446 280.172 268.678 280.947 269.13L280.513 269.907C279.885 269.492 279.145 269.278 278.392 269.294C277.092 269.294 276.524 269.802 276.524 270.489C276.524 272.431 281.186 270.967 281.186 273.731C281.186 274.986 280.095 275.793 278.198 275.793C277.155 275.816 276.134 275.501 275.284 274.897Z" fill="#263238"/>
<path d="M286.848 275.225C286.423 275.562 285.896 275.742 285.354 275.733C285.07 275.764 284.782 275.731 284.513 275.636C284.243 275.541 283.998 275.386 283.796 275.184C283.594 274.982 283.44 274.737 283.345 274.468C283.25 274.198 283.217 273.911 283.247 273.627V269.279H281.948V268.458H283.247V266.874H284.218V268.458H286.4V269.279H284.218V273.582C284.193 273.754 284.207 273.93 284.259 274.096C284.311 274.262 284.4 274.414 284.519 274.54C284.639 274.667 284.785 274.765 284.948 274.826C285.111 274.888 285.285 274.912 285.458 274.897C285.851 274.909 286.234 274.776 286.534 274.523L286.848 275.225Z" fill="#263238"/>
<path d="M300.294 266.067V275.659H299.458L293.302 267.875V275.659H292.286V266.067H293.123L299.293 273.851V266.067H300.294Z" fill="#263238"/>
<path d="M308.72 271.192V275.674H307.764V274.554C307.494 274.956 307.122 275.278 306.686 275.488C306.25 275.698 305.766 275.788 305.284 275.749C303.656 275.749 302.655 274.897 302.655 273.642C302.655 272.387 303.372 271.61 305.448 271.61H307.764V271.177C307.764 269.937 307.062 269.265 305.717 269.265C304.844 269.253 303.996 269.556 303.327 270.116L302.879 269.384C303.73 268.72 304.788 268.376 305.867 268.413C306.245 268.37 306.629 268.411 306.99 268.534C307.351 268.657 307.68 268.859 307.953 269.125C308.226 269.391 308.437 269.715 308.57 270.072C308.702 270.43 308.754 270.812 308.72 271.192ZM307.749 273.493V272.313H305.478C304.089 272.313 303.641 272.865 303.641 273.612C303.641 274.359 304.313 274.957 305.463 274.957C305.953 274.99 306.44 274.866 306.854 274.603C307.268 274.339 307.587 273.95 307.764 273.493H307.749Z" fill="#263238"/>
<path d="M323.257 271.475V275.659H322.286V271.58C322.286 270.086 321.509 269.279 320.209 269.279C319.872 269.263 319.536 269.322 319.224 269.45C318.911 269.577 318.631 269.772 318.402 270.02C318.173 270.267 318.001 270.562 317.897 270.883C317.794 271.204 317.762 271.544 317.804 271.879V275.659H316.833V271.58C316.833 270.086 316.056 269.279 314.741 269.279C314.404 269.263 314.068 269.322 313.756 269.45C313.443 269.577 313.163 269.772 312.934 270.02C312.705 270.267 312.532 270.562 312.429 270.883C312.326 271.204 312.294 271.544 312.336 271.879V275.659H311.365V268.457H312.246V269.772C312.528 269.332 312.921 268.973 313.385 268.732C313.849 268.491 314.368 268.375 314.89 268.398C315.42 268.354 315.95 268.474 316.41 268.741C316.869 269.008 317.236 269.41 317.46 269.892C317.755 269.41 318.174 269.017 318.674 268.754C319.174 268.492 319.735 268.368 320.299 268.398C320.707 268.358 321.12 268.411 321.505 268.553C321.891 268.696 322.239 268.923 322.524 269.22C322.808 269.516 323.022 269.873 323.149 270.263C323.276 270.654 323.313 271.068 323.257 271.475Z" fill="#263238"/>
<path d="M332.206 272.357H326.23C326.251 272.709 326.341 273.052 326.495 273.369C326.649 273.685 326.864 273.968 327.128 274.202C327.392 274.435 327.699 274.614 328.032 274.728C328.365 274.842 328.717 274.889 329.068 274.867C329.483 274.88 329.896 274.803 330.278 274.641C330.66 274.478 331.002 274.234 331.28 273.926L331.817 274.553C331.3 275.094 330.634 275.47 329.904 275.635C329.174 275.8 328.411 275.745 327.711 275.479C327.012 275.213 326.406 274.747 325.97 274.138C325.534 273.53 325.286 272.807 325.259 272.058C325.234 271.583 325.308 271.107 325.474 270.661C325.641 270.214 325.898 269.807 326.228 269.464C326.559 269.121 326.956 268.849 327.396 268.666C327.836 268.482 328.308 268.391 328.785 268.398C329.26 268.389 329.733 268.478 330.172 268.661C330.611 268.844 331.008 269.116 331.337 269.46C331.665 269.804 331.919 270.213 332.081 270.66C332.244 271.108 332.312 271.584 332.281 272.058C332.221 272.148 332.206 272.253 332.206 272.357ZM326.23 271.64H331.339C331.339 270.963 331.07 270.313 330.591 269.834C330.112 269.355 329.462 269.085 328.785 269.085C328.107 269.085 327.457 269.355 326.978 269.834C326.499 270.313 326.23 270.963 326.23 271.64Z" fill="#263238"/>
</g>
<path d="M445.092 209.071H249.617V242.537H445.092V209.071Z" fill="white"/>
<g opacity="0.4">
<path d="M261.33 221.232V224.997H266.29V225.878H261.33V229.942H260.314V220.351H266.888V221.232H261.33Z" fill="#263238"/>
<path d="M268.427 220.456C268.424 220.312 268.464 220.172 268.542 220.052C268.619 219.931 268.731 219.837 268.863 219.781C268.994 219.725 269.14 219.71 269.28 219.737C269.421 219.764 269.55 219.833 269.651 219.934C269.752 220.035 269.821 220.164 269.848 220.304C269.875 220.445 269.86 220.59 269.804 220.722C269.747 220.854 269.653 220.965 269.533 221.043C269.413 221.121 269.272 221.161 269.129 221.158C268.943 221.158 268.764 221.084 268.633 220.952C268.501 220.82 268.427 220.642 268.427 220.456ZM268.636 222.741H269.607V229.942H268.636V222.741Z" fill="#263238"/>
<path d="M275.957 222.681V223.623H275.718C275.375 223.606 275.032 223.665 274.714 223.796C274.397 223.928 274.112 224.128 273.881 224.382C273.65 224.636 273.477 224.938 273.376 225.267C273.276 225.595 273.249 225.942 273.298 226.282V229.957H272.326V222.756H273.253V224.101C273.511 223.622 273.906 223.231 274.388 222.978C274.87 222.725 275.416 222.622 275.957 222.681Z" fill="#263238"/>
<path d="M276.764 229.121L277.197 228.344C277.944 228.885 278.844 229.173 279.767 229.166C281.141 229.166 281.694 228.688 281.694 227.985C281.694 226.103 277.033 227.582 277.033 224.729C277.033 223.563 278.034 222.682 279.871 222.682C280.769 222.662 281.654 222.895 282.426 223.354L281.993 224.131C281.364 223.716 280.624 223.502 279.871 223.518C278.571 223.518 278.004 224.026 278.004 224.714C278.004 226.656 282.665 225.192 282.665 227.956C282.665 229.196 281.574 230.002 279.677 230.002C278.636 230.029 277.615 229.72 276.764 229.121Z" fill="#263238"/>
<path d="M288.342 229.51C287.913 229.836 287.387 230.009 286.848 230.003C286.565 230.036 286.278 230.005 286.008 229.911C285.738 229.818 285.493 229.665 285.291 229.464C285.088 229.263 284.934 229.019 284.839 228.75C284.744 228.481 284.711 228.195 284.742 227.911V223.563H283.442V222.742H284.742V221.113H285.713V222.697H287.894V223.519H285.713V227.806C285.688 227.979 285.702 228.155 285.754 228.322C285.806 228.488 285.895 228.641 286.014 228.769C286.133 228.896 286.279 228.996 286.441 229.059C286.604 229.123 286.779 229.149 286.953 229.136C287.344 229.141 287.725 229.009 288.028 228.763L288.342 229.51Z" fill="#263238"/>
<path d="M301.788 220.351V229.942H300.951L294.796 222.158V229.942H293.78V220.351H294.617L300.787 228.134V220.351H301.788Z" fill="#263238"/>
<path d="M310.199 225.476V229.958H309.258V228.837C308.99 229.236 308.62 229.556 308.186 229.764C307.753 229.971 307.272 230.059 306.793 230.017C305.149 230.017 304.148 229.181 304.148 227.926C304.148 226.671 304.866 225.894 306.942 225.894H309.258V225.446C309.258 224.221 308.556 223.548 307.211 223.548C306.338 223.537 305.49 223.839 304.821 224.4L304.373 223.668C305.224 223.005 306.282 222.661 307.361 222.697C307.739 222.653 308.122 222.694 308.482 222.817C308.843 222.94 309.171 223.142 309.443 223.409C309.715 223.675 309.924 223.999 310.055 224.357C310.186 224.714 310.235 225.097 310.199 225.476ZM309.228 227.776V226.596H306.957C305.568 226.596 305.12 227.149 305.12 227.881C305.12 228.613 305.792 229.241 306.942 229.241C307.434 229.275 307.923 229.151 308.34 228.888C308.756 228.624 309.078 228.235 309.258 227.776H309.228Z" fill="#263238"/>
<path d="M324.736 225.76V229.943H323.764V225.864C323.764 224.37 322.988 223.563 321.688 223.563C321.351 223.548 321.014 223.606 320.702 223.734C320.39 223.862 320.11 224.056 319.881 224.304C319.652 224.551 319.479 224.846 319.376 225.167C319.273 225.488 319.241 225.828 319.282 226.163V229.943H318.311V225.864C318.311 224.37 317.534 223.563 316.22 223.563C315.883 223.548 315.546 223.606 315.234 223.734C314.922 223.862 314.642 224.056 314.413 224.304C314.183 224.551 314.011 224.846 313.908 225.167C313.805 225.488 313.773 225.828 313.814 226.163V229.943H312.843V222.742H313.74V224.101C314.022 223.661 314.414 223.302 314.878 223.061C315.342 222.82 315.862 222.704 316.384 222.727C316.914 222.683 317.444 222.803 317.903 223.07C318.363 223.337 318.729 223.739 318.954 224.221C319.246 223.737 319.665 223.342 320.165 223.079C320.666 222.816 321.228 222.694 321.792 222.727C322.196 222.69 322.602 222.745 322.982 222.886C323.362 223.027 323.705 223.251 323.987 223.541C324.269 223.832 324.483 224.182 324.612 224.566C324.742 224.95 324.784 225.357 324.736 225.76Z" fill="#263238"/>
<path d="M333.685 226.64H327.709C327.73 226.992 327.82 227.336 327.974 227.652C328.128 227.969 328.343 228.252 328.607 228.485C328.871 228.718 329.178 228.897 329.511 229.011C329.844 229.125 330.196 229.173 330.548 229.15C330.964 229.164 331.378 229.085 331.76 228.92C332.143 228.755 332.484 228.507 332.759 228.194L333.297 228.837C332.779 229.377 332.113 229.753 331.383 229.918C330.653 230.083 329.89 230.029 329.191 229.762C328.491 229.496 327.885 229.03 327.449 228.421C327.013 227.813 326.766 227.09 326.738 226.342C326.713 225.866 326.787 225.39 326.954 224.944C327.12 224.497 327.377 224.09 327.707 223.747C328.038 223.404 328.435 223.132 328.875 222.949C329.315 222.766 329.788 222.675 330.264 222.681C330.74 222.672 331.212 222.762 331.651 222.944C332.091 223.127 332.487 223.399 332.816 223.744C333.145 224.088 333.398 224.496 333.561 224.943C333.723 225.391 333.791 225.867 333.76 226.342C333.7 226.416 333.685 226.521 333.685 226.64ZM327.709 225.908H332.819C332.819 225.231 332.549 224.581 332.07 224.102C331.591 223.623 330.941 223.354 330.264 223.354C329.586 223.354 328.937 223.623 328.457 224.102C327.978 224.581 327.709 225.231 327.709 225.908Z" fill="#263238"/>
</g>
<path d="M176.068 493.439H174.649C174.649 491.332 176.397 441.97 184.987 433.679C193.817 425.088 204.2 433.559 204.29 433.679L203.393 434.754C203.005 434.441 193.876 427.03 185.958 434.754C177.786 442.538 176.083 492.931 176.068 493.439Z" fill="#74BF44"/>
<path d="M175.351 503.344L173.946 503.21C173.946 502.612 179.504 443.27 158.005 418.589L159.066 417.663C180.968 442.807 175.41 502.746 175.351 503.344Z" fill="#74BF44"/>
<path d="M176.038 497.01C175.858 494.201 171.72 428.286 188.244 413.047L189.2 414.093C173.169 428.824 177.397 496.263 177.442 496.905L176.038 497.01Z" fill="#74BF44"/>
<path d="M173.946 496.965C173.946 496.517 173.438 452.145 161.681 445.467C160.681 444.807 159.538 444.398 158.347 444.273C157.156 444.148 155.953 444.312 154.838 444.749C147.951 447.603 144.29 460.75 144.246 460.885L142.886 460.511C143.035 459.943 146.77 446.572 154.3 443.45C155.612 442.923 157.031 442.72 158.438 442.857C159.845 442.995 161.198 443.47 162.383 444.241C174.828 451.368 175.351 495.037 175.366 496.95L173.946 496.965Z" fill="#74BF44"/>
<path d="M178.787 496.994C178.698 495.5 176.89 461.975 186.407 449.53C188.946 446.228 191.755 444.659 194.803 444.883C201.571 445.346 206.755 454.52 207.039 454.908L205.814 455.61C205.814 455.521 200.704 446.646 194.698 446.288C192.173 446.093 189.753 447.483 187.527 450.396C178.324 462.348 180.177 496.576 180.192 496.919L178.787 496.994Z" fill="#74BF44"/>
<path d="M176.889 501.641L175.485 501.537C175.485 500.73 181.461 420.681 171.601 407.325L172.736 406.488C182.925 420.263 177.143 498.324 176.889 501.641Z" fill="#74BF44"/>
<path d="M151.566 451.412C151.566 451.412 157.662 453.668 155.854 458.972C154.046 464.276 134.744 473.016 134.744 473.016C134.744 473.016 126.661 465.62 134.086 453.594C141.512 441.567 151.402 447.618 151.566 451.412Z" fill="#74BF44"/>
<path opacity="0.2" d="M151.566 451.412C151.566 451.412 157.662 453.668 155.854 458.972C154.046 464.276 134.744 473.016 134.744 473.016C134.744 473.016 126.661 465.62 134.086 453.594C141.512 441.567 151.402 447.618 151.566 451.412Z" fill="black"/>
<path d="M178.085 441.313C178.085 441.313 171.586 441.044 171.212 446.632C170.839 452.219 185.256 467.727 185.256 467.727C185.256 467.727 195.564 463.992 193.353 450.023C191.142 436.054 179.698 437.862 178.085 441.313Z" fill="#74BF44"/>
<path opacity="0.2" d="M178.085 441.313C178.085 441.313 171.586 441.044 171.212 446.632C170.839 452.219 185.256 467.727 185.256 467.727C185.256 467.727 195.564 463.992 193.353 450.023C191.142 436.054 179.698 437.862 178.085 441.313Z" fill="black"/>
<path d="M183.583 414.51C183.583 414.51 179.25 414.047 179.594 411.418C179.937 408.788 196.431 401.99 206.157 412.912C206.157 412.912 199.927 423.609 190.933 423.758C181.939 423.907 183.583 414.51 183.583 414.51Z" fill="#74BF44"/>
<path opacity="0.2" d="M183.583 414.51C183.583 414.51 179.25 414.047 179.594 411.418C179.937 408.788 196.431 401.99 206.157 412.912C206.157 412.912 199.927 423.609 190.933 423.758C181.939 423.907 183.583 414.51 183.583 414.51Z" fill="black"/>
<path d="M175.515 408.101C175.515 408.101 179.429 409.999 180.535 407.579C181.64 405.158 171.227 390.681 157.169 394.85C157.169 394.85 156.795 407.22 164.355 412.105C171.914 416.991 175.515 408.101 175.515 408.101Z" fill="#74BF44"/>
<path opacity="0.2" d="M175.515 408.101C175.515 408.101 179.429 409.999 180.535 407.579C181.64 405.158 171.227 390.681 157.169 394.85C157.169 394.85 156.795 407.22 164.355 412.105C171.914 416.991 175.515 408.101 175.515 408.101Z" fill="black"/>
<path d="M196.013 449.291C196.013 449.291 193.025 446.871 196.252 445.69C199.479 444.51 215.3 444.854 215.465 460.526C215.465 460.526 197.029 463.588 194.758 457.612C192.487 451.636 196.013 449.291 196.013 449.291Z" fill="#74BF44"/>
<path opacity="0.2" d="M196.013 449.291C196.013 449.291 193.025 446.871 196.252 445.69C199.479 444.51 215.3 444.854 215.465 460.526C215.465 460.526 197.029 463.588 194.758 457.612C192.487 451.636 196.013 449.291 196.013 449.291Z" fill="black"/>
<path d="M158.363 414.122C158.363 414.122 161.351 411.702 158.124 410.537C154.897 409.371 139.076 409.685 138.912 425.357C138.912 425.357 157.348 428.435 159.618 422.459C161.889 416.483 158.363 414.122 158.363 414.122Z" fill="#74BF44"/>
<path opacity="0.2" d="M158.363 414.122C158.363 414.122 161.351 411.702 158.124 410.537C154.897 409.371 139.076 409.685 138.912 425.357C138.912 425.357 157.348 428.435 159.618 422.459C161.889 416.483 158.363 414.122 158.363 414.122Z" fill="black"/>
<path d="M168.164 426.746C168.164 426.746 168.433 423.758 166.058 424.968C163.682 426.178 155.45 435.023 163.996 443.464C163.996 443.464 175.515 434.933 173.438 430.496C171.361 426.059 168.164 426.746 168.164 426.746Z" fill="#74BF44"/>
<path opacity="0.2" d="M168.164 426.746C168.164 426.746 168.433 423.758 166.058 424.968C163.682 426.178 155.45 435.023 163.996 443.464C163.996 443.464 175.515 434.933 173.438 430.496C171.361 426.059 168.164 426.746 168.164 426.746Z" fill="black"/>
<path d="M198.702 430.93C198.702 430.93 196.909 428.584 199.539 428.301C202.168 428.017 213.881 431.139 211.147 442.852C211.147 442.852 196.864 441.776 196.207 436.876C195.55 431.976 198.702 430.93 198.702 430.93Z" fill="#74BF44"/>
<path opacity="0.2" d="M198.702 430.93C198.702 430.93 196.909 428.584 199.539 428.301C202.168 428.017 213.881 431.139 211.147 442.852C211.147 442.852 196.864 441.776 196.207 436.876C195.55 431.976 198.702 430.93 198.702 430.93Z" fill="black"/>
<path d="M152.627 540.41H198.806L204.947 495.5H146.486L152.627 540.41Z" fill="#263238"/>
<path opacity="0.2" d="M152.627 540.41H198.806L204.947 495.5H146.486L152.627 540.41Z" fill="white"/>
<path d="M210.743 491.855V496.128C210.743 497.499 210.199 498.814 209.229 499.783C208.26 500.753 206.945 501.298 205.574 501.298H145.291C143.92 501.298 142.606 500.753 141.636 499.783C140.667 498.814 140.122 497.499 140.122 496.128V491.855H210.743Z" fill="#263238"/>
<path d="M595.539 66.1995H552.616C549.113 66.1995 545.754 67.591 543.277 70.0678C540.8 72.5445 539.409 75.9038 539.409 79.4065V116.756C539.407 118.492 539.747 120.211 540.41 121.815C541.073 123.419 542.045 124.877 543.272 126.105C544.498 127.333 545.955 128.307 547.558 128.972C549.162 129.636 550.88 129.978 552.616 129.978H565.151L562.163 141.766L574.115 129.978H595.613C599.12 129.978 602.483 128.585 604.963 126.106C607.442 123.626 608.835 120.263 608.835 116.756V79.4065C608.835 77.6646 608.491 75.9398 607.821 74.3316C607.152 72.7234 606.171 71.2635 604.935 70.0359C603.699 68.8084 602.233 67.8374 600.62 67.179C599.007 66.5206 597.28 66.1877 595.539 66.1995Z" fill="#74BF44"/>
<path opacity="0.7" d="M595.539 66.1995H552.616C549.113 66.1995 545.754 67.591 543.277 70.0678C540.8 72.5445 539.409 75.9038 539.409 79.4065V116.756C539.407 118.492 539.747 120.211 540.41 121.815C541.073 123.419 542.045 124.877 543.272 126.105C544.498 127.333 545.955 128.307 547.558 128.972C549.162 129.636 550.88 129.978 552.616 129.978H565.151L562.163 141.766L574.115 129.978H595.613C599.12 129.978 602.483 128.585 604.963 126.106C607.442 123.626 608.835 120.263 608.835 116.756V79.4065C608.835 77.6646 608.491 75.9398 607.821 74.3316C607.152 72.7234 606.171 71.2635 604.935 70.0359C603.699 68.8084 602.233 67.8374 600.62 67.179C599.007 66.5206 597.28 66.1877 595.539 66.1995Z" fill="white"/>
<path d="M574.085 114.59C583.285 114.59 590.743 107.132 590.743 97.9315C590.743 88.7315 583.285 81.2734 574.085 81.2734C564.885 81.2734 557.427 88.7315 557.427 97.9315C557.427 107.132 564.885 114.59 574.085 114.59Z" fill="white"/>
<path d="M574.085 76.6279C569.871 76.6279 565.752 77.8774 562.248 80.2184C558.745 82.5593 556.014 85.8866 554.402 89.7795C552.789 93.6724 552.367 97.956 553.189 102.089C554.011 106.221 556.041 110.017 559.02 112.997C561.999 115.976 565.796 118.005 569.928 118.827C574.061 119.649 578.344 119.228 582.237 117.615C586.13 116.003 589.458 113.272 591.798 109.768C594.139 106.265 595.389 102.146 595.389 97.9324C595.391 95.1341 594.841 92.3629 593.771 89.7772C592.701 87.1915 591.132 84.8422 589.153 82.8635C587.175 80.8848 584.825 79.3156 582.24 78.2456C579.654 77.1757 576.883 76.626 574.085 76.6279ZM586.171 91.5679L573.338 106.687C573.155 106.906 572.927 107.081 572.668 107.2C572.41 107.319 572.128 107.378 571.844 107.374C571.559 107.376 571.278 107.316 571.02 107.197C570.762 107.078 570.533 106.904 570.35 106.687L561.998 96.8418C561.822 96.6471 561.686 96.4189 561.6 96.1707C561.513 95.9226 561.478 95.6596 561.495 95.3974C561.513 95.1353 561.583 94.8793 561.701 94.6448C561.82 94.4103 561.984 94.202 562.185 94.0324C562.386 93.8629 562.618 93.7354 562.869 93.6577C563.12 93.58 563.384 93.5537 563.646 93.5802C563.907 93.6068 564.161 93.6857 564.391 93.8122C564.621 93.9388 564.824 94.1104 564.986 94.3169L571.844 102.399L583.183 89.0431C583.524 88.6672 583.997 88.4383 584.503 88.4047C585.009 88.371 585.509 88.5352 585.896 88.8626C586.284 89.19 586.529 89.6551 586.58 90.1598C586.631 90.6644 586.485 91.1693 586.171 91.5679Z" fill="#74BF44"/>
<path d="M588.098 296.649C588.098 296.649 562.088 293.362 522.676 304.119C522.676 304.119 516.341 233.692 517.088 224.011C517.835 214.33 577.939 217.168 577.939 217.168C577.939 217.168 579.433 245.36 583.347 262.362C587.262 279.363 590.13 293.377 588.098 296.649Z" fill="#A4C93A"/>
<path opacity="0.2" d="M588.098 296.649C588.098 296.649 562.088 293.362 522.676 304.119C522.676 304.119 516.341 233.692 517.088 224.011C517.835 214.33 577.939 217.168 577.939 217.168C577.939 217.168 579.433 245.36 583.347 262.362C587.262 279.363 590.13 293.377 588.098 296.649Z" fill="black"/>
<path d="M503.672 529.803L514.28 532.806L516.804 516.297L518.164 507.468L507.557 504.465L505.749 516.297L503.672 529.803Z" fill="#E4897B"/>
<path d="M564.657 530.669L575.593 532.118L575.698 516.297L575.773 506.466L564.822 505.032L564.747 516.297L564.657 530.669Z" fill="#E4897B"/>
<path opacity="0.2" d="M564.822 505.032L564.747 516.297H575.698L575.773 506.466L564.822 505.032Z" fill="black"/>
<path opacity="0.2" d="M505.749 516.297H516.804L518.164 507.468L507.557 504.465L505.749 516.297Z" fill="black"/>
<path d="M456.582 229.792L446.049 226.685L447.976 238.711C447.976 238.711 457.538 240.907 458.434 235.932L456.582 229.792Z" fill="#E4897B"/>
<path d="M435.531 229.478L440.7 239.249L447.976 238.711L446.049 226.685L435.531 229.478Z" fill="#E4897B"/>
<path d="M471.118 232.87L453.818 229.001L452.249 237.397L467.951 241.222L471.118 232.87Z" fill="#E4897B"/>
<path d="M523.453 225.281L522.437 226.491C520.256 229.046 514.967 235.216 509.454 240.535C504.972 244.867 500.49 248.647 497.502 249.409C489.031 251.59 458.24 242.522 458.24 242.522L461.422 230.032C461.422 230.032 490.107 233.841 492.333 233.841C494.021 233.841 511.471 208.563 515.699 206.486L523.453 225.281Z" fill="#A4C93A"/>
<path opacity="0.2" d="M522.437 226.491C520.255 229.046 514.967 235.216 509.454 240.535C510.559 231.78 513.772 223.742 518 218.662C518.394 218.172 518.845 217.731 519.344 217.348L522.437 226.491Z" fill="black"/>
<path d="M503.807 528.144L515.849 527.831C516.066 527.824 516.279 527.891 516.453 528.021C516.626 528.152 516.751 528.337 516.805 528.548L519.345 538.244C519.405 538.476 519.413 538.719 519.367 538.954C519.321 539.19 519.223 539.412 519.079 539.604C518.936 539.796 518.751 539.954 518.538 540.065C518.325 540.176 518.09 540.238 517.851 540.246C513.503 540.246 507.213 540.246 501.76 540.35C495.366 540.53 491.302 540.216 483.832 540.35C479.35 540.47 477.856 535.958 479.769 535.495C488.329 533.373 493.932 533.792 501.222 529.011C501.992 528.498 502.884 528.199 503.807 528.144Z" fill="#263238"/>
<path d="M502.761 529.698C500.998 530.086 497.861 530.609 496.606 529.579C496.423 529.427 496.279 529.234 496.185 529.016C496.092 528.798 496.052 528.56 496.068 528.324C496.067 528.181 496.104 528.042 496.175 527.918C496.246 527.795 496.348 527.693 496.471 527.621C497.801 526.83 502.298 528.966 502.821 529.205C502.867 529.23 502.905 529.266 502.931 529.311C502.958 529.356 502.971 529.407 502.97 529.459C502.968 529.517 502.946 529.572 502.908 529.615C502.87 529.659 502.818 529.688 502.761 529.698ZM496.785 528.04H496.696C496.646 528.069 496.604 528.11 496.575 528.16C496.547 528.209 496.531 528.266 496.531 528.324C496.519 528.478 496.543 528.633 496.603 528.776C496.663 528.919 496.756 529.046 496.875 529.145C497.577 529.728 499.4 529.788 501.82 529.31C500.072 528.578 497.637 527.726 496.815 528.04H496.785Z" fill="#A4C93A"/>
<path d="M502.761 529.698H502.582C501.222 529.13 498.503 526.829 498.653 525.589C498.653 525.291 498.892 524.917 499.609 524.828C499.872 524.793 500.14 524.811 500.396 524.88C500.652 524.949 500.893 525.069 501.103 525.231C502.597 526.351 502.94 529.295 502.97 529.414C502.975 529.46 502.967 529.505 502.949 529.547C502.931 529.589 502.902 529.625 502.866 529.653L502.761 529.698ZM499.415 525.41C499.19 525.485 499.176 525.604 499.176 525.649C499.086 526.396 500.938 528.219 502.328 528.996C502.168 527.741 501.613 526.569 500.744 525.649C500.597 525.525 500.424 525.434 500.239 525.383C500.053 525.331 499.859 525.32 499.669 525.35C499.582 525.358 499.496 525.378 499.415 525.41Z" fill="#A4C93A"/>
<path d="M565.091 528.144L577.132 527.831C577.351 527.823 577.567 527.89 577.743 528.02C577.919 528.15 578.046 528.336 578.103 528.548L580.628 538.244C580.692 538.476 580.702 538.72 580.657 538.957C580.612 539.193 580.514 539.417 580.37 539.61C580.226 539.803 580.04 539.96 579.826 540.071C579.612 540.181 579.375 540.241 579.134 540.246C574.787 540.246 568.497 540.246 563.029 540.35C556.65 540.53 552.571 540.216 545.101 540.35C540.619 540.47 539.125 535.958 541.037 535.495C549.598 533.373 555.185 533.792 562.476 529.011C563.254 528.493 564.157 528.194 565.091 528.144Z" fill="#263238"/>
<path d="M564.06 529.698C562.297 530.086 559.144 530.609 557.904 529.579C557.722 529.427 557.577 529.234 557.484 529.016C557.39 528.798 557.35 528.56 557.367 528.324C557.366 528.181 557.403 528.042 557.474 527.918C557.545 527.795 557.647 527.693 557.77 527.621C559.085 526.83 563.597 528.966 564.105 529.205C564.154 529.225 564.196 529.26 564.223 529.306C564.25 529.352 564.261 529.406 564.254 529.459C564.25 529.514 564.229 529.566 564.194 529.609C564.16 529.652 564.113 529.683 564.06 529.698ZM558.084 528.04H557.994C557.945 528.068 557.905 528.11 557.878 528.16C557.852 528.21 557.84 528.267 557.845 528.324C557.83 528.478 557.853 528.634 557.913 528.778C557.973 528.921 558.068 529.047 558.188 529.145C558.891 529.728 560.698 529.788 563.133 529.31C561.356 528.578 558.92 527.726 558.099 528.04H558.084Z" fill="#A4C93A"/>
<path d="M564.06 529.698H563.866C562.521 529.131 559.787 526.83 559.951 525.59C559.951 525.291 560.176 524.918 560.893 524.828C561.156 524.792 561.424 524.809 561.681 524.878C561.937 524.948 562.177 525.068 562.387 525.231C563.432 526.396 564.085 527.859 564.254 529.415C564.262 529.46 564.256 529.507 564.237 529.55C564.219 529.592 564.188 529.628 564.15 529.654L564.06 529.698ZM560.698 525.411C560.489 525.485 560.474 525.605 560.474 525.65C560.37 526.397 562.237 528.219 563.627 528.996C563.456 527.744 562.903 526.576 562.043 525.65C561.895 525.527 561.723 525.436 561.537 525.385C561.352 525.333 561.158 525.322 560.967 525.351L560.698 525.411Z" fill="#A4C93A"/>
<path d="M587.217 290.225C593.014 315.339 583.063 512.92 583.063 512.92H563.851L555.634 348.266L525.38 512.92L504.838 511.426C518.284 383.869 530.131 307.719 530.131 307.719V298.098L587.217 290.225Z" fill="#263238"/>
<path opacity="0.4" d="M504.838 511.426L525.38 512.92L549.195 383.301L555.634 348.266L563.851 512.92H583.063C583.063 512.92 593.014 315.339 587.217 290.225L530.101 298.098V307.719C530.101 307.719 518.269 383.869 504.838 511.426Z" fill="white"/>
<path d="M576.863 197.208C576.274 209.216 576.579 221.251 577.775 233.214C578.582 241.58 579.687 249.483 580.867 256.61C583.631 273.328 586.769 285.862 587.217 290.24L530.101 298.113C509.275 239.847 517.118 205.993 517.118 205.993C521.389 204.23 525.765 202.733 530.221 201.511C531.162 201.257 532.118 201.018 533.104 200.794C541.126 199.215 549.232 198.098 557.382 197.447C558.876 197.313 560.504 197.208 562.028 197.134C569.827 196.745 576.863 197.208 576.863 197.208Z" fill="#263238"/>
<path d="M546.297 170.988C546.715 178.981 547.566 193.981 554.215 197.791C554.215 197.791 550.076 205.664 541.127 206.471C534.359 207.068 534.808 200.39 534.808 200.39C538.722 197.477 537.796 192.532 534.808 186.944L546.297 170.988Z" fill="#E4897B"/>
<path opacity="0.2" d="M541.605 177.503L534.852 186.945C535.563 188.236 536.163 189.586 536.645 190.979C539.782 189.724 543.383 185.003 542.86 181.582C542.696 180.156 542.271 178.774 541.605 177.503Z" fill="black"/>
<path d="M517.163 154.898C515.863 159.051 516.58 167.567 522.362 164.803C528.144 162.04 519.404 147.772 517.163 154.898Z" fill="#263238"/>
<path d="M547.043 160.516C547.686 171.168 548.537 177.368 543.891 183.404C536.824 192.472 523.139 189.096 519.314 178.817C515.878 169.554 515.415 153.688 525.29 148.31C527.479 147.119 529.935 146.503 532.427 146.519C534.919 146.535 537.366 147.183 539.539 148.403C541.712 149.622 543.541 151.373 544.853 153.492C546.165 155.61 546.919 158.027 547.043 160.516Z" fill="#E4897B"/>
<path d="M539.573 154.719V142.767C539.573 142.767 552.242 141.826 551.674 148.31C558.696 151.791 555.38 162.712 545.952 168.061C540.783 163.922 541.381 153.972 541.381 153.972C540.828 154.256 540.2 154.495 539.573 154.719Z" fill="#263238"/>
<path d="M552.197 168.823C551.953 170.126 551.451 171.367 550.719 172.473C549.988 173.579 549.043 174.527 547.94 175.262C544.952 177.219 542.367 174.814 542.262 171.452C542.173 168.464 543.592 163.743 547.028 163.146C547.78 163.029 548.549 163.1 549.266 163.352C549.984 163.605 550.627 164.032 551.139 164.594C551.651 165.157 552.016 165.837 552.201 166.575C552.385 167.313 552.384 168.086 552.197 168.823Z" fill="#E4897B"/>
<path d="M531.311 165.266C531.416 166.133 531.042 166.88 530.475 166.94C529.907 167 529.369 166.357 529.265 165.446C529.16 164.534 529.534 163.832 530.086 163.772C530.639 163.713 531.207 164.34 531.311 165.266Z" fill="#263238"/>
<path d="M521.54 166.357C521.645 167.224 521.271 167.971 520.704 168.03C520.136 168.09 519.598 167.448 519.494 166.536C519.389 165.625 519.763 164.923 520.33 164.863C520.898 164.803 521.406 165.49 521.54 166.357Z" fill="#263238"/>
<path d="M524.693 166.432C523.938 169.103 522.817 171.657 521.361 174.021C522.006 174.352 522.713 174.543 523.436 174.582C524.16 174.621 524.883 174.506 525.559 174.245L524.693 166.432Z" fill="#DE5753"/>
<path d="M530.594 177.024C530.226 177.118 529.851 177.188 529.474 177.233C529.406 177.233 529.342 177.207 529.294 177.159C529.246 177.111 529.22 177.047 529.22 176.979C529.22 176.912 529.246 176.847 529.294 176.8C529.342 176.752 529.406 176.725 529.474 176.725C530.547 176.628 531.581 176.28 532.495 175.709C533.408 175.138 534.175 174.36 534.733 173.439C534.745 173.408 534.764 173.381 534.788 173.359C534.812 173.336 534.84 173.319 534.871 173.307C534.902 173.296 534.935 173.291 534.967 173.293C535 173.295 535.032 173.304 535.061 173.319C535.092 173.333 535.119 173.354 535.142 173.379C535.165 173.404 535.182 173.434 535.193 173.466C535.205 173.498 535.209 173.532 535.207 173.565C535.205 173.599 535.196 173.632 535.181 173.663C534.692 174.511 534.032 175.249 533.242 175.827C532.452 176.406 531.55 176.814 530.594 177.024Z" fill="#263238"/>
<path d="M533.941 161.785C533.85 161.806 533.756 161.804 533.667 161.778C533.578 161.751 533.497 161.703 533.433 161.636C533 161.162 532.463 160.795 531.864 160.564C531.265 160.333 530.62 160.245 529.982 160.306C529.916 160.322 529.847 160.323 529.781 160.311C529.714 160.298 529.651 160.272 529.595 160.235C529.539 160.197 529.491 160.148 529.455 160.091C529.419 160.034 529.394 159.97 529.384 159.903C529.371 159.837 529.371 159.77 529.384 159.704C529.398 159.638 529.424 159.576 529.461 159.52C529.499 159.465 529.547 159.417 529.603 159.38C529.659 159.343 529.721 159.318 529.787 159.305C530.594 159.209 531.412 159.307 532.173 159.59C532.934 159.873 533.617 160.334 534.165 160.934C534.214 160.98 534.252 161.035 534.279 161.097C534.306 161.159 534.319 161.225 534.319 161.292C534.319 161.36 534.306 161.426 534.279 161.488C534.252 161.549 534.214 161.605 534.165 161.651C534.101 161.712 534.024 161.758 533.941 161.785Z" fill="#263238"/>
<path d="M516.925 163.474C516.828 163.511 516.722 163.511 516.626 163.474C516.499 163.43 516.395 163.338 516.337 163.217C516.278 163.097 516.269 162.958 516.312 162.832C516.559 162.063 516.988 161.365 517.563 160.798C518.138 160.23 518.841 159.811 519.614 159.575C519.744 159.541 519.883 159.561 520 159.629C520.116 159.698 520.2 159.81 520.234 159.941C520.267 160.071 520.248 160.21 520.179 160.327C520.11 160.443 519.998 160.527 519.868 160.561C519.257 160.749 518.702 161.085 518.251 161.538C517.8 161.991 517.468 162.548 517.283 163.16C517.255 163.239 517.207 163.308 517.144 163.363C517.082 163.418 517.006 163.456 516.925 163.474Z" fill="#263238"/>
<path d="M545.191 159.141C545.191 159.141 537.721 156.407 534.314 152.075C534.314 152.075 527.532 153.853 526.142 156.557C525.508 156.014 525.098 155.255 524.99 154.428C524.883 153.6 525.086 152.762 525.56 152.075C525.56 152.075 520.48 153.15 519.479 156.557C518.653 156.164 517.976 155.516 517.545 154.709C517.115 153.903 516.955 152.979 517.089 152.075C517.089 152.075 514.833 152.926 514.101 156.557C514.101 156.557 508.498 144.874 527.009 141.527C525.608 141.052 524.14 140.805 522.661 140.795C522.661 140.795 535.584 135.581 545.818 140.347C556.052 145.113 554.274 154.346 545.191 159.141Z" fill="#263238"/>
<path d="M591.624 300.294L573.696 302.685C573.696 302.685 566.301 251.007 563.044 234.319V198.702L572.411 196.237L579.672 198.702C581.663 205.868 583.195 213.154 584.259 220.515C585.14 226.102 585.932 232.078 586.634 238.129C587.605 246.376 588.412 254.772 589.099 262.631C590.175 275.315 590.892 286.535 591.28 293.392C591.504 297.695 591.624 300.294 591.624 300.294Z" fill="#A4C93A"/>
<path d="M563.059 234.289C563.059 234.289 564.553 209.145 572.427 196.178C572.427 196.178 572.232 192.472 570.664 191.875C569.095 191.277 563.059 194.863 563.059 194.863C563.059 194.863 559.309 192.293 558.488 193.488C557.666 194.684 555.664 202.632 563.059 234.289Z" fill="#A4C93A"/>
<path opacity="0.7" d="M563.059 234.289C563.059 234.289 564.553 209.145 572.427 196.178C572.427 196.178 572.232 192.472 570.664 191.875C569.095 191.277 563.059 194.863 563.059 194.863C563.059 194.863 559.309 192.293 558.488 193.488C557.666 194.684 555.664 202.632 563.059 234.289Z" fill="white"/>
<path d="M522.302 307.182L524.349 308.676C524.349 308.676 521.361 292.018 522.586 249.887C522.586 247.856 522.721 245.898 522.795 244.031C524.289 208.384 529.847 201.9 530.265 201.512L525.096 203.275L515.729 206.502C512.905 236.905 522.302 307.182 522.302 307.182Z" fill="#A4C93A"/>
<path d="M523.109 237.89C523.109 237.89 517.94 213.448 519.479 205.022C521.018 196.596 526.53 200.346 526.53 200.346C526.53 200.346 531.595 196.252 533.104 200.764C533.104 200.764 526.142 205.665 523.109 237.89Z" fill="#A4C93A"/>
<path opacity="0.7" d="M523.109 237.89C523.109 237.89 517.94 213.448 519.479 205.022C521.018 196.596 526.53 200.346 526.53 200.346C526.53 200.346 531.595 196.252 533.104 200.764C533.104 200.764 526.142 205.665 523.109 237.89Z" fill="white"/>
<path opacity="0.2" d="M586.604 238.069C578.955 233.782 577.939 222.592 577.939 222.592C578.402 222.412 581.241 221.441 584.229 220.455C585.11 226.043 585.902 232.019 586.604 238.069Z" fill="black"/>
<path opacity="0.2" d="M549.194 383.301L555.634 348.267L554.394 329.727C554.394 329.727 545.564 361.877 549.194 383.301Z" fill="black"/>
<path opacity="0.2" d="M591.251 293.333C586.44 293.004 582.287 292.69 582.287 292.69L581.375 273.134C582.874 272.195 584.675 271.864 586.41 272.208C587.592 269.083 588.487 265.858 589.084 262.571C590.13 275.255 590.862 286.49 591.251 293.333Z" fill="black"/>
<path d="M592.894 262.556L583.527 277.6L590.937 281.858L599.737 268.308L592.894 262.556Z" fill="#E4897B"/>
<path d="M579.269 198.464C585.574 199.151 612.376 235.933 613.556 247.019C614.736 258.104 597.809 277.243 597.809 277.243L586.515 270.594C586.515 270.594 597.989 252.95 598.586 248.184C599.184 243.418 577.596 224.161 577.596 224.161C575.963 219.724 575.065 215.052 574.936 210.326C574.637 202.229 579.269 198.464 579.269 198.464Z" fill="#A4C93A"/>
<path d="M581.36 273.148C581.36 273.148 590.996 275.21 594.881 281.276C594.881 281.276 590.847 293.9 587.964 295.275C585.08 296.649 577.939 296.649 577.939 296.649C577.939 296.649 577.476 282.605 581.36 273.148Z" fill="#A4C93A"/>
</svg>
