<svg width="30" height="30" viewBox="0 0 30 30" fill="none" xmlns="http://www.w3.org/2000/svg">
<path d="M10.668 12.1109L15.374 15.6411C15.6655 15.8598 16.0289 15.9601 16.3914 15.9221C16.7538 15.8841 17.0885 15.7104 17.3283 15.436L26.5569 4.88867" stroke="#74BF44" stroke-width="3" stroke-linecap="round"/>
<path d="M28 14.9998C28 17.7161 27.1492 20.3642 25.5671 22.5721C23.9849 24.7801 21.7508 26.437 19.1787 27.3101C16.6065 28.1832 13.8254 28.2287 11.2261 27.4402C8.62677 26.6516 6.33972 25.0687 4.68619 22.9136C3.03267 20.7586 2.09572 18.1397 2.00695 15.4248C1.91818 12.71 2.68204 10.0355 4.19126 7.77705C5.70047 5.51859 7.87922 3.78961 10.4215 2.83295C12.9638 1.87628 15.7418 1.73999 18.3656 2.44321" stroke="#74BF44" stroke-width="3" stroke-linecap="round"/>
</svg>
