<svg width="35" height="40" viewBox="0 0 35 40" fill="none" xmlns="http://www.w3.org/2000/svg">
<path d="M6.14093 32.9218C5.54041 32.5143 5.02396 31.9946 4.41944 31.259C4.10569 30.868 3.79475 30.4747 3.48663 30.0791C2.55982 28.9074 1.97532 28.3653 1.37279 28.1432C1.11927 28.0578 0.885107 27.9216 0.684079 27.7426C0.483052 27.5637 0.319228 27.3456 0.202255 27.1012C0.0852827 26.8568 0.0175258 26.5911 0.00297424 26.3196C-0.0115773 26.0482 0.0273707 25.7765 0.117525 25.5206C0.20768 25.2647 0.347218 25.0298 0.527923 24.8296C0.708628 24.6295 0.926846 24.4681 1.16973 24.3551C1.41261 24.2421 1.67525 24.1798 1.94217 24.1717C2.2091 24.1636 2.47491 24.21 2.72397 24.308C4.22927 24.8582 5.24816 25.8058 6.62135 27.5441C6.43319 27.3056 7.30194 28.4142 7.4881 28.6424C7.86843 29.105 8.14868 29.3862 8.36887 29.535C8.77722 29.8142 9.54589 29.9344 10.6709 29.8203C10.7189 29.0419 10.859 28.2858 11.0752 27.5889C5.13406 26.1095 1.77114 22.2091 1.77114 14.5551C1.77114 12.0282 2.51178 9.75404 3.88898 7.84665C3.4526 6.02486 3.51866 3.82199 4.4935 1.34198C4.60414 1.06145 4.77469 0.809485 4.99281 0.604355C5.21093 0.399225 5.47114 0.246066 5.7546 0.15598C5.91674 0.107072 6.00882 0.0846567 6.17096 0.060203C7.77836 -0.192485 10.0483 0.40663 13.0069 2.29364C14.7699 1.87346 16.5749 1.66284 18.3856 1.66599C20.2112 1.66599 22.0267 1.87792 23.7582 2.29364C26.7148 0.392365 28.9908 -0.206749 30.6082 0.060203C30.779 0.0873738 30.9245 0.121337 31.0446 0.162093C31.3225 0.255377 31.5769 0.409551 31.7899 0.613758C32.003 0.817964 32.1695 1.06724 32.2776 1.34402C33.2525 3.82199 33.3185 6.02282 32.8822 7.84462C34.2654 9.752 35 12.0119 35 14.5551C35 22.2111 31.6491 26.0993 25.7079 27.5808C25.9581 28.4264 26.0883 29.3699 26.0883 30.3929C26.0883 31.7481 26.0843 33.04 26.0742 34.4889C26.0742 34.8761 26.0702 35.2918 26.0642 35.9276C26.5138 36.0272 26.916 36.2814 27.203 36.6475C27.4901 37.0136 27.6444 37.4691 27.6402 37.9375C27.636 38.4059 27.4734 38.8585 27.1798 39.2191C26.8862 39.5798 26.4795 39.8264 26.0282 39.9176C23.7462 40.3802 22.0568 38.8335 22.0568 36.81L22.0608 35.8991L22.0708 34.4624C22.0808 33.0217 22.0868 31.7379 22.0868 30.3929C22.0868 28.9726 21.7185 28.0454 21.234 27.6195C19.9109 26.4579 20.5815 24.2489 22.317 24.0513C28.2541 23.3727 30.9965 21.0312 30.9965 14.5551C30.9965 12.609 30.372 11.0012 29.1689 9.65622C28.9158 9.37285 28.7462 9.02257 28.6796 8.64556C28.613 8.26855 28.6522 7.88007 28.7926 7.52468C29.1249 6.68103 29.265 5.5745 28.9828 4.23566L28.9628 4.24178C27.9799 4.52503 26.7408 5.13841 25.2435 6.17565C25.0021 6.34246 24.7277 6.45351 24.4397 6.50103C24.1517 6.54855 23.8569 6.53139 23.5761 6.45076C21.8865 5.97385 20.1408 5.73456 18.3876 5.73956C16.606 5.73956 14.8405 5.98002 13.1991 6.4528C12.9196 6.53248 12.6264 6.54934 12.3398 6.50218C12.0533 6.45503 11.7802 6.34501 11.5396 6.17973C10.0323 5.14656 8.78923 4.53522 7.79637 4.24993C7.51012 5.58062 7.65225 6.68307 7.98253 7.52468C8.12227 7.87999 8.1609 8.26817 8.09399 8.64478C8.02708 9.0214 7.85734 9.37122 7.6042 9.65419C6.40917 10.9889 5.77662 12.6253 5.77662 14.5531C5.77662 21.017 8.521 23.3727 14.4281 24.0492C16.1596 24.2469 16.8342 26.4477 15.5191 27.6113C15.1327 27.9537 14.6583 29.103 14.6583 30.3909V36.81C14.6583 38.8172 12.9889 40.3252 10.7349 39.9237C10.2781 39.8421 9.86323 39.6014 9.56134 39.2429C9.25945 38.8844 9.08923 38.4303 9.07977 37.9582C9.07032 37.486 9.22221 37.0252 9.5095 36.6545C9.79679 36.2838 10.2016 36.0261 10.6549 35.9256V33.9081C8.83327 34.0324 7.32997 33.7288 6.14294 32.9198" fill="#74BF44"/>
</svg>
