<svg width="34" height="35" viewBox="0 0 34 35" fill="none" xmlns="http://www.w3.org/2000/svg">
<path d="M12 2.87838V32.7432M2 13.2432C2 9.30811 2 7.34054 2.72667 5.83676C3.36581 4.5146 4.38564 3.43964 5.64 2.76595C7.06667 2 8.93333 2 12.6667 2H21.3333C25.0667 2 26.9333 2 28.36 2.76595C29.6144 3.43964 30.6342 4.5146 31.2733 5.83676C32 7.34054 32 9.30811 32 13.2432V22.3784C32 26.3135 32 28.2811 31.2733 29.7849C30.6342 31.107 29.6144 32.182 28.36 32.8557C26.9333 33.6216 25.0667 33.6216 21.3333 33.6216H12.6667C8.93333 33.6216 7.06667 33.6216 5.64 32.8557C4.38564 32.182 3.36581 31.107 2.72667 29.7849C2 28.2811 2 26.3135 2 22.3784V13.2432Z" stroke="black" stroke-opacity="0.7" stroke-width="2.43243" stroke-linecap="round" stroke-linejoin="round"/>
</svg>
