<svg width="40" height="37" viewBox="0 0 40 37" fill="none" xmlns="http://www.w3.org/2000/svg">
<path d="M20.1904 30.7187L19.9987 30.9104L19.7879 30.7187C10.6837 22.4579 4.66536 16.9954 4.66536 11.4562C4.66536 7.62288 7.54036 4.74788 11.3737 4.74788C14.3254 4.74788 17.2004 6.66455 18.2162 9.27122H21.7812C22.797 6.66455 25.672 4.74788 28.6237 4.74788C32.457 4.74788 35.332 7.62288 35.332 11.4562C35.332 16.9954 29.3137 22.4579 20.1904 30.7187ZM28.6237 0.914551C25.2887 0.914551 22.0879 2.46705 19.9987 4.90122C17.9095 2.46705 14.7087 0.914551 11.3737 0.914551C5.47036 0.914551 0.832031 5.53372 0.832031 11.4562C0.832031 18.6821 7.3487 24.6046 17.2195 33.5554L19.9987 36.0854L22.7779 33.5554C32.6487 24.6046 39.1654 18.6821 39.1654 11.4562C39.1654 5.53372 34.527 0.914551 28.6237 0.914551Z" fill="#74BF44"/>
</svg>
