<svg width="54" height="39" viewBox="0 0 54 39" fill="none" xmlns="http://www.w3.org/2000/svg">
<path d="M6.65355 12.406C6.65331 10.35 7.14729 8.32608 8.09106 6.51642C9.03484 4.70677 10.3988 3.16808 12.0603 2.03875C13.7218 0.909419 15.6287 0.224873 17.6095 0.0466785C19.5903 -0.131516 21.5828 0.20223 23.408 1.0179C25.2331 1.83357 26.8335 3.10558 28.0653 4.71952C29.2971 6.33346 30.1216 8.23871 30.4647 10.2639C30.8078 12.2891 30.6587 14.3708 30.0309 16.3216C29.403 18.2725 28.3161 20.0313 26.8678 21.44C29.5983 22.8109 31.9691 24.8421 33.7792 27.3618C35.5894 29.8814 36.7855 32.8151 37.2662 35.9143C37.3191 36.2591 37.3058 36.6114 37.227 36.951C37.1483 37.2905 37.0056 37.6107 36.8071 37.8932C36.6087 38.1758 36.3584 38.4151 36.0705 38.5976C35.7826 38.7801 35.4628 38.9022 35.1293 38.9569C34.7958 39.0116 34.4551 38.9978 34.1268 38.9163C33.7984 38.8349 33.4888 38.6874 33.2156 38.4822C32.9423 38.277 32.7109 38.0181 32.5344 37.7204C32.3579 37.4227 32.2399 37.092 32.187 36.7471C31.6729 33.4167 30.0275 30.3849 27.5463 28.1962C25.065 26.0074 21.9105 24.8051 18.6491 24.8051C15.3877 24.8051 12.2332 26.0074 9.75195 28.1962C7.2707 30.3849 5.62532 33.4167 5.11126 36.7471C5.05815 37.092 4.93988 37.4227 4.76318 37.7203C4.58649 38.0179 4.35483 38.2766 4.08145 38.4816C3.80807 38.6867 3.49832 38.834 3.16987 38.9153C2.84142 38.9965 2.50072 39.01 2.16721 38.9551C1.8337 38.9002 1.51392 38.7779 1.22612 38.5952C0.938321 38.4125 0.688144 38.1729 0.489871 37.8902C0.291598 37.6075 0.149114 37.2872 0.0705518 36.9476C-0.00800993 36.6079 -0.0211101 36.2556 0.0319994 35.9107C0.511042 32.8118 1.70656 29.8783 3.51693 27.3595C5.32731 24.8408 7.69901 22.8113 10.4304 21.4436C9.23774 20.2835 8.28735 18.8831 7.6378 17.3289C6.98824 15.7746 6.65328 14.0992 6.65355 12.406ZM37.4993 7.0898C39.4906 7.09124 41.4387 7.6904 43.1071 8.81455C44.7755 9.9387 46.0924 11.5395 46.8981 13.4226C47.7037 15.3058 47.9634 17.3902 47.6456 19.423C47.3279 21.4558 46.4463 23.3495 45.1079 24.8743C47.1952 25.9435 49.0498 27.4416 50.5583 29.2771C52.0669 31.1125 53.1977 33.2466 53.8818 35.5492C54.0177 35.996 54.0368 36.472 53.9372 36.929C53.8377 37.3859 53.623 37.8074 53.3149 38.1508C53.0069 38.4942 52.6165 38.7472 52.1833 38.8841C51.7501 39.021 51.2897 39.0369 50.8486 38.9303C50.4077 38.8248 50.0015 38.6009 49.6711 38.281C49.3407 37.9611 49.0978 37.5567 48.967 37.1086C48.3519 35.0543 47.2322 33.1999 45.7173 31.7265C44.2024 30.2532 42.344 29.2111 40.3234 28.7019C39.7621 28.5618 39.2628 28.2304 38.906 27.7611C38.5491 27.2917 38.3554 26.7118 38.3561 26.1147V24.8672C38.3558 24.3723 38.4891 23.8872 38.741 23.4664C38.9929 23.0456 39.3534 22.7059 39.7819 22.4855C40.8209 21.953 41.6553 21.0729 42.1496 19.9881C42.6439 18.9034 42.769 17.6776 42.5046 16.5101C42.2401 15.3425 41.6018 14.3017 40.6931 13.5566C39.7845 12.8116 38.6589 12.4061 37.4993 12.406C36.8176 12.406 36.1637 12.126 35.6817 11.6275C35.1996 11.129 34.9288 10.4529 34.9288 9.7479C34.9288 9.04293 35.1996 8.36683 35.6817 7.86834C36.1637 7.36985 36.8176 7.0898 37.4993 7.0898ZM18.6491 5.31773C17.7363 5.29639 16.8285 5.46384 15.9792 5.81027C15.1298 6.15669 14.3559 6.6751 13.7029 7.33507C13.05 7.99503 12.5311 8.78325 12.1767 9.65343C11.8224 10.5236 11.6398 11.4582 11.6395 12.4024C11.6393 13.3466 11.8215 14.2813 12.1754 15.1517C12.5293 16.0221 13.0478 16.8105 13.7005 17.4708C14.3531 18.1311 15.1268 18.65 15.976 18.9968C16.8252 19.3437 17.7329 19.5116 18.6457 19.4907C20.4367 19.4498 22.141 18.6854 23.3938 17.3613C24.6466 16.0371 25.3483 14.2584 25.3488 12.406C25.3492 10.5535 24.6483 8.77443 23.3962 7.44964C22.144 6.12485 20.4401 5.35961 18.6491 5.31773Z" fill="#FFC93F"/>
</svg>
