<svg width="31" height="37" viewBox="0 0 31 37" fill="none" xmlns="http://www.w3.org/2000/svg">
<path d="M7.75 20.35H23.25V16.65H7.75V20.35ZM7.75 25.9H23.25V22.2H7.75V25.9ZM7.75 31.45H17.4375V27.75H7.75V31.45ZM3.875 37C2.80938 37 1.89746 36.638 1.13925 35.914C0.381041 35.1901 0.00129167 34.3187 0 33.3V3.7C0 2.6825 0.37975 1.81177 1.13925 1.0878C1.89875 0.363833 2.81067 0.00123333 3.875 0H19.375L31 11.1V33.3C31 34.3175 30.6209 35.1888 29.8627 35.914C29.1045 36.6392 28.1919 37.0012 27.125 37H3.875ZM17.4375 12.95V3.7H3.875V33.3H27.125V12.95H17.4375Z" fill="#74BF44"/>
</svg>
