<svg width="35" height="35" viewBox="0 0 35 35" fill="none" xmlns="http://www.w3.org/2000/svg">
<path d="M30.7891 18.2656L30.1328 8.36719L25.5938 11.1562C23.3516 10.7734 22.75 10.7734 21 9.95313C19.9609 9.46094 18.6484 9.78906 17.9922 10.1719C17.0078 9.13281 10.6094 10.6641 9.89844 10.9922C7.98438 10.3906 5.14062 8.20312 5.14062 8.20312L4.15625 19.3594L5.46875 19.6875C5.57812 20.0703 5.90625 21 5.90625 21C4.70313 22.5313 6.125 24.3359 7.49219 23.7344C6.89062 25.2656 8.47656 26.6875 9.73437 25.7031C9.57031 27.125 11.0469 28.1641 12.1406 27.1797C11.6484 28.875 13.5625 30.1328 14.7109 28.7656C15.5312 29.3125 16.2969 29.75 16.9531 29.9688C18.1016 30.4609 19.3594 29.3672 19.1406 28C20.4531 29.5312 22.4219 28.0547 21.9844 26.3594C23.4609 27.5078 25.2656 25.5938 24.3359 23.8984C25.9766 24.8281 27.3984 22.3125 25.8125 20.6719L30.7891 18.2656Z" fill="#FFDD67"/>
<path d="M7.60156 19.8516C8.42187 20.2344 8.96875 21.4922 8.09375 22.5859L7.71094 23.0234C7.27344 23.5703 6.83594 23.7344 6.39844 23.7344C6.72656 23.8984 7.10937 23.8984 7.49219 23.7344C7.54687 23.5703 7.65625 23.3516 7.82031 23.1875L8.20312 22.75C8.42188 22.4766 8.69531 22.2578 8.91406 22.1484C9.35156 21 8.58594 19.9062 7.60156 19.8516ZM13.8359 25.2656C14.7109 25.4844 15.3672 26.6328 14.7109 27.8906L14.3828 28.3828C14.0547 28.9844 13.6172 29.2578 13.1797 29.3125C13.7812 29.4766 14.4375 29.2578 14.875 28.4375L15.2031 27.9453C16.0234 26.4141 14.9844 25.1562 13.8359 25.2656ZM10.0078 24.8281L10.8828 23.4609C10.8281 22.6953 10.1719 22.0391 9.51562 21.9844C10.3359 22.3672 10.8828 23.625 10.0078 24.7188L9.625 25.1562C9.1875 25.7031 8.75 25.8672 8.25781 25.8672C8.69531 26.0859 9.1875 26.0312 9.67969 25.7031C9.73438 25.4297 9.84375 25.1016 10.0078 24.8281ZM12.3594 22.3672C13.2344 22.6406 13.8359 23.8437 13.0703 25.0469L12.0312 26.6875C11.6484 27.2891 11.2109 27.5078 10.7734 27.5078C11.3203 27.6719 12.0312 27.5078 12.5234 26.7422L13.5625 25.1016C14.4375 23.6797 13.4531 22.3125 12.3594 22.3672ZM19.6328 23.7344C19.6875 23.7344 20.3437 23.625 20.5625 23.625C19.7422 22.8047 18.4297 23.4609 17.6641 23.0234C18.2109 23.9531 19.3594 23.7344 19.4687 23.7344L20.7812 25.4297C21.875 26.7969 21 28.3828 19.8516 28.5469C21.0547 28.9297 22.2578 27.6719 21.875 26.3047C21.8203 26.25 19.6328 23.7344 19.6328 23.7344ZM20.9453 20.5625C20.9453 20.5625 21.7656 20.3984 22.4766 20.3984C21.6562 19.7422 20.3984 20.3438 19.5781 19.7969C19.9062 20.5078 20.6172 20.5078 20.8359 20.5625L23.3516 23.4609C24.5 24.7734 23.6797 26.3594 22.5312 26.6328C23.8437 27.0156 25.1016 25.3203 24.2812 23.8437C23.7344 23.625 20.9453 20.5625 20.9453 20.5625Z" fill="#EBA352"/>
<path d="M19.1953 26.8516C18.375 26.1953 17.2266 26.6875 16.7344 26.3594C17.0078 27.125 18.0469 26.9609 18.1016 26.9609C19.0312 28.3828 18.0469 29.8594 16.8984 29.9688C18.0469 30.4609 19.3047 29.3672 19.0859 28C19.0313 27.9453 18.2656 26.9609 18.2656 26.9609C18.375 26.9062 18.9766 26.8516 19.1953 26.8516ZM30.1875 17.3359C30.1875 17.3359 29.2578 19.25 25.6484 20.2891C25.1563 19.6875 24.1172 18.4844 22.9141 17.4453C23.6797 17.2812 24.0625 16.6797 24.6641 16.5703C24.4453 16.3516 23.6797 16.4609 23.0781 16.6797C21.9844 17.0625 19.4688 15.3125 19.4688 15.3125L17.3906 15.5859C15.9141 17.0078 12.7422 17.7734 12.5781 15.5859C12.4688 14.0547 15.8047 13.0156 16.8438 12.0312C18.1563 10.7734 19.3047 9.1875 21.4375 10.2812C23.1875 11.1562 23.8984 11.1016 26.3047 11.5391C27.125 11.7031 27.6719 12.0859 28.2734 12.9062C27.7813 11.7578 27.0703 11.2656 26.1953 11.1016L30.0234 9.29687L30.0781 8.36719L25.5391 10.9375C23.4609 10.6094 22.6953 10.6094 21 9.78906C19.9063 9.24219 19.0313 9.40625 18.3203 9.84375C17.0078 9.07812 16.2422 9.24219 15.75 9.35156C14.2188 9.84375 11.7578 9.89844 9.57031 10.7734C9.95313 10.8828 10.3359 10.9922 10.6094 10.9922C12.7422 10.3359 14.9844 10.3906 16.0234 10.0078C16.3516 9.89844 17.0078 9.89844 17.7188 10.2812C17.2813 10.6641 16.8984 11.1016 16.4609 11.5391C15.4219 12.5234 12.25 13.9453 12.4688 15.75C12.5781 16.625 13.7813 18.9219 17.7734 16.3516L19.4688 16.1328C19.4688 16.1328 22.5859 17.6094 25.4844 21C26.6328 22.3125 25.9219 23.7344 24.7734 24.0625C26.25 24.3359 27.5078 22.2578 26.0859 20.8359L29.5313 18.9766L30.1875 17.3359Z" fill="#EBA352"/>
<path d="M29.2053 8.91406L31.01 18.2656L29.5334 18.9219C28.7678 16.8984 27.6193 12.0313 27.8928 9.67969L29.2053 8.91406Z" fill="#3B946F"/>
<path d="M6.07031 20.7812C5.79688 20.125 5.63281 19.25 5.63281 19.25L4.26563 18.3203L4.15625 19.3594L5.35938 19.6875C5.52344 20.2344 5.6875 20.6719 5.90625 21L6.07031 20.7812Z" fill="#EBA352"/>
<path d="M3.33594 19.1953L6.28906 8.96875L7.65625 9.89844C7.875 11.4297 5.35938 18.4297 4.42969 19.4687L3.33594 19.1953Z" fill="#74BF44"/>
<path d="M29.1484 8.85938C28.7109 9.13281 30.2969 18.5938 30.9531 18.3203C33.0312 17.3906 33.9609 17.1172 33.9609 17.1172V5.85156C33.9062 5.85156 32.6484 6.78125 29.1484 8.85938ZM1.09375 4.92188V18.8672C1.09375 18.8672 2.07812 19.0312 3.33594 19.3047C4.04687 19.4688 6.61719 9.1875 6.45312 9.02344C4.59375 7.76562 1.09375 4.92188 1.09375 4.92188Z" fill="#74BF44"/>
</svg>
