<svg width="12" height="12" viewBox="0 0 12 12" fill="none" xmlns="http://www.w3.org/2000/svg">
<path d="M11.8592 2.06071L9.93929 0.140773C9.89471 0.0961458 9.84177 0.0607426 9.7835 0.0365877C9.72523 0.0124328 9.66278 0 9.5997 0C9.53662 0 9.47416 0.0124328 9.41589 0.0365877C9.35762 0.0607426 9.30469 0.0961458 9.26011 0.140773L3.50029 5.90059C3.45573 5.9452 3.4204 5.99815 3.39631 6.05642C3.37222 6.11469 3.35984 6.17713 3.35989 6.24018V8.16012C3.35989 8.28742 3.41046 8.40951 3.50048 8.49952C3.59049 8.58954 3.71258 8.64011 3.83988 8.64011H5.75982C5.82287 8.64015 5.88531 8.62778 5.94358 8.60369C6.00185 8.5796 6.0548 8.54427 6.09941 8.49971L11.8592 2.73989C11.9039 2.69531 11.9393 2.64238 11.9634 2.58411C11.9876 2.52584 12 2.46338 12 2.4003C12 2.33722 11.9876 2.27477 11.9634 2.2165C11.9393 2.15823 11.9039 2.10529 11.8592 2.06071ZM5.56123 7.68014H4.31986V6.43878L8.15974 2.5989L9.4011 3.84026L5.56123 7.68014ZM10.0797 3.16168L8.83832 1.92032L9.5997 1.15894L10.8411 2.4003L10.0797 3.16168ZM11.5196 6.24018V11.04C11.5196 11.2946 11.4185 11.5388 11.2385 11.7188C11.0584 11.8989 10.8143 12 10.5597 12H0.95997C0.70537 12 0.461198 11.8989 0.281169 11.7188C0.101139 11.5388 0 11.2946 0 11.04V1.44033C0 1.18573 0.101139 0.94156 0.281169 0.761531C0.461198 0.581502 0.70537 0.480362 0.95997 0.480362H5.75982C5.88712 0.480362 6.00921 0.530932 6.09922 0.620947C6.18923 0.710961 6.2398 0.833047 6.2398 0.960347C6.2398 1.08765 6.18923 1.20973 6.09922 1.29975C6.00921 1.38976 5.88712 1.44033 5.75982 1.44033H0.95997V11.04H10.5597V6.24018C10.5597 6.11288 10.6102 5.9908 10.7003 5.90078C10.7903 5.81077 10.9124 5.7602 11.0397 5.7602C11.167 5.7602 11.289 5.81077 11.3791 5.90078C11.4691 5.9908 11.5196 6.11288 11.5196 6.24018Z" fill="#74BF44"/>
</svg>
