<svg width="34" height="34" viewBox="0 0 34 34" fill="none" xmlns="http://www.w3.org/2000/svg">
<path d="M32.5465 30.6314L25.2995 23.3818C27.4724 20.5504 28.4868 16.9985 28.1371 13.4467C27.7874 9.89489 26.0996 6.60909 23.4162 4.25584C20.7328 1.9026 17.2547 0.658121 13.6875 0.774863C10.1202 0.891605 6.73096 2.36082 4.20718 4.88448C1.68341 7.40814 0.214121 10.7973 0.0973733 14.3643C-0.0193745 17.9314 1.22516 21.4094 3.57852 24.0926C5.93187 26.7759 9.21783 28.4636 12.7698 28.8133C16.3218 29.163 19.8738 28.1486 22.7053 25.9758L29.9584 33.2301C30.1287 33.4004 30.3309 33.5355 30.5535 33.6277C30.7761 33.7199 31.0146 33.7673 31.2555 33.7673C31.4964 33.7673 31.7349 33.7199 31.9575 33.6277C32.18 33.5355 32.3822 33.4004 32.5526 33.2301C32.7229 33.0598 32.858 32.8575 32.9502 32.635C33.0424 32.4125 33.0898 32.1739 33.0898 31.933C33.0898 31.6922 33.0424 31.4536 32.9502 31.2311C32.858 31.0086 32.7229 30.8063 32.5526 30.636L32.5465 30.6314ZM3.78302 14.8366C3.78302 12.7844 4.3916 10.7782 5.53181 9.07186C6.67203 7.36549 8.29265 6.03554 10.1888 5.25018C12.0849 4.46483 14.1713 4.25934 16.1842 4.65971C18.1971 5.06008 20.046 6.04833 21.4972 7.49948C22.9485 8.95062 23.9368 10.7995 24.3371 12.8123C24.7375 14.8251 24.532 16.9114 23.7466 18.8074C22.9613 20.7035 21.6312 22.324 19.9248 23.4642C18.2183 24.6043 16.2121 25.2129 14.1598 25.2129C11.4086 25.2101 8.77083 24.1159 6.82542 22.1706C4.88001 20.2253 3.78584 17.5877 3.78302 14.8366Z" fill="white"/>
</svg>
