<svg width="48" height="33" viewBox="0 0 48 33" fill="none" xmlns="http://www.w3.org/2000/svg">
<path d="M5.91427 10.4974C5.91405 8.75765 6.35314 7.04515 7.19206 5.5139C8.03097 3.98265 9.24339 2.68068 10.7203 1.72509C12.1971 0.769509 13.8922 0.190277 15.6529 0.0394972C17.4136 -0.111283 19.1847 0.171117 20.8071 0.861299C22.4294 1.55148 23.852 2.62779 24.9469 3.99344C26.0419 5.35908 26.7748 6.97122 27.0798 8.68486C27.3847 10.3985 27.2522 12.1599 26.6941 13.8106C26.136 15.4613 25.1698 16.9496 23.8825 18.1415C26.3096 19.3015 28.417 21.0203 30.026 23.1523C31.635 25.2842 32.6982 27.7666 33.1255 30.389C33.1726 30.6808 33.1607 30.9789 33.0907 31.2662C33.0207 31.5535 32.8938 31.8244 32.7175 32.0635C32.5411 32.3026 32.3186 32.5051 32.0627 32.6595C31.8068 32.814 31.5225 32.9173 31.2261 32.9635C30.9296 33.0098 30.6268 32.9981 30.3349 32.9292C30.043 32.8603 29.7678 32.7355 29.525 32.5618C29.2821 32.3882 29.0763 32.1692 28.9195 31.9173C28.7626 31.6654 28.6576 31.3855 28.6106 31.0937C28.1537 28.2757 26.6911 25.7103 24.4856 23.8583C22.28 22.0063 19.476 20.9889 16.577 20.9889C13.678 20.9889 10.8739 22.0063 8.6684 23.8583C6.46285 25.7103 5.00028 28.2757 4.54335 31.0937C4.49614 31.3855 4.391 31.6654 4.23394 31.9172C4.07688 32.169 3.87096 32.3879 3.62796 32.5614C3.38495 32.7349 3.10961 32.8596 2.81766 32.9283C2.52571 32.997 2.22286 33.0085 1.92641 32.962C1.62996 32.9156 1.3457 32.8121 1.08988 32.6575C0.834063 32.5028 0.611683 32.3002 0.435441 32.0609C0.259199 31.8217 0.132545 31.5507 0.0627127 31.2633C-0.00711994 30.9759 -0.0187645 30.6778 0.0284439 30.386C0.454259 27.7638 1.51694 25.2816 3.12616 23.1504C4.73538 21.0191 6.84356 19.3019 9.2715 18.1445C8.21133 17.1629 7.36653 15.978 6.78915 14.6629C6.21177 13.3477 5.91403 11.9301 5.91427 10.4974ZM33.3327 5.99906C35.1028 6.00028 36.8344 6.50726 38.3174 7.45847C39.8004 8.40967 40.971 9.76419 41.6872 11.3576C42.4033 12.951 42.6341 14.7148 42.3517 16.4349C42.0692 18.1549 41.2856 19.7573 40.0959 21.0475C41.9513 21.9522 43.5998 23.2199 44.9407 24.7729C46.2817 26.3259 47.2869 28.1318 47.8949 30.0801C48.0157 30.4582 48.0327 30.861 47.9442 31.2476C47.8557 31.6342 47.6648 31.9909 47.391 32.2814C47.1172 32.572 46.7702 32.7861 46.3852 32.9019C46.0001 33.0177 45.5908 33.0312 45.1988 32.941C44.8068 32.8518 44.4458 32.6623 44.1521 32.3916C43.8584 32.1209 43.6425 31.7787 43.5263 31.3996C42.9795 29.6613 41.9842 28.0923 40.6376 26.8455C39.291 25.5988 37.6391 24.717 35.843 24.2863C35.3441 24.1677 34.9003 23.8873 34.5831 23.4901C34.2658 23.093 34.0937 22.6023 34.0943 22.0971V21.0415C34.0941 20.6227 34.2125 20.2122 34.4364 19.8562C34.6604 19.5001 34.9808 19.2127 35.3617 19.0262C36.2852 18.5756 37.027 17.8309 37.4663 16.913C37.9057 15.9952 38.0168 14.958 37.7818 13.9701C37.5468 12.9821 36.9794 12.1014 36.1717 11.471C35.364 10.8405 34.3635 10.4974 33.3327 10.4974C32.7267 10.4974 32.1456 10.2604 31.7171 9.83862C31.2886 9.41683 31.0478 8.84474 31.0478 8.24823C31.0478 7.65171 31.2886 7.07963 31.7171 6.65783C32.1456 6.23603 32.7267 5.99906 33.3327 5.99906ZM16.577 4.49962C15.7656 4.48156 14.9587 4.62325 14.2037 4.91638C13.4487 5.20951 12.7608 5.64817 12.1804 6.2066C11.6 6.76503 11.1387 7.43198 10.8238 8.16829C10.5088 8.9046 10.3465 9.69543 10.3463 10.4944C10.3461 11.2933 10.508 12.0842 10.8226 12.8207C11.1372 13.5571 11.5981 14.2243 12.1782 14.783C12.7583 15.3417 13.446 15.7807 14.2009 16.0742C14.9557 16.3677 15.7625 16.5098 16.5739 16.4922C18.1659 16.4575 19.6809 15.8107 20.7945 14.6903C21.9081 13.5699 22.5318 12.0648 22.5322 10.4974C22.5326 8.92987 21.9096 7.42452 20.7966 6.30354C19.6836 5.18257 18.169 4.53506 16.577 4.49962Z" fill="#74BF44"/>
</svg>
