<svg width="48" height="48" viewBox="0 0 48 48" fill="none" xmlns="http://www.w3.org/2000/svg">
<rect width="48" height="48" rx="6" fill="#74BF44" fill-opacity="0.08"/>
<path d="M37.9635 20.9918V29.3813M37.1525 22.281C37.4028 22.1705 37.6152 21.9891 37.7634 21.7591C37.9116 21.5292 37.9891 21.2608 37.9863 20.9872C37.9835 20.7136 37.9004 20.4469 37.7475 20.2201C37.5946 19.9932 37.3784 19.8162 37.1259 19.711L25.1415 14.2522C24.7771 14.086 24.3813 14 23.9809 14C23.5805 14 23.1847 14.086 22.8204 14.2522L10.8373 19.7054C10.5884 19.8144 10.3766 19.9936 10.2279 20.2211C10.0792 20.4485 10 20.7144 10 20.9862C10 21.2579 10.0792 21.5238 10.2279 21.7513C10.3766 21.9788 10.5884 22.158 10.8373 22.267L22.8204 27.7314C23.1847 27.8975 23.5805 27.9836 23.9809 27.9836C24.3813 27.9836 24.7771 27.8975 25.1415 27.7314L37.1525 22.281Z" stroke="#74BF44" stroke-width="2" stroke-linecap="round" stroke-linejoin="round"/>
<path d="M15.5938 24.4873V29.3812C15.5938 30.4937 16.4776 31.5607 18.051 32.3473C19.6243 33.134 21.7582 33.576 23.9833 33.576C26.2083 33.576 28.3422 33.134 29.9156 32.3473C31.4889 31.5607 32.3728 30.4937 32.3728 29.3812V24.4873" stroke="#74BF44" stroke-width="2" stroke-linecap="round" stroke-linejoin="round"/>
</svg>
