<svg width="28" height="28" viewBox="0 0 28 28" fill="none" xmlns="http://www.w3.org/2000/svg">
<path d="M9.06615 9.06949C9.32869 8.80703 9.68472 8.65959 10.056 8.65959C10.4272 8.65959 10.7832 8.80703 11.0458 9.06949L14.0614 12.0837L17.0756 9.06949C17.2047 8.93578 17.3592 8.82912 17.53 8.75575C17.7008 8.68238 17.8845 8.64376 18.0704 8.64214C18.2563 8.64053 18.4406 8.67595 18.6127 8.74634C18.7847 8.81674 18.9411 8.92069 19.0725 9.05214C19.204 9.18359 19.3079 9.3399 19.3783 9.51196C19.4487 9.68401 19.4841 9.86836 19.4825 10.0543C19.4809 10.2401 19.4423 10.4239 19.3689 10.5947C19.2955 10.7655 19.1889 10.9199 19.0552 11.0491L16.041 14.0647L19.0552 17.0789C19.3102 17.3429 19.4513 17.6966 19.4481 18.0637C19.4449 18.4307 19.2977 18.7819 19.0381 19.0414C18.7785 19.301 18.4274 19.4482 18.0603 19.4514C17.6932 19.4546 17.3396 19.3135 17.0756 19.0585L14.0614 16.0443L11.0458 19.0585C10.7807 19.3074 10.4292 19.4434 10.0656 19.4378C9.70208 19.4321 9.35498 19.2853 9.09778 19.0282C8.84059 18.7712 8.69347 18.4242 8.68757 18.0607C8.68166 17.6971 8.81743 17.3455 9.06615 17.0803L12.0804 14.0661L9.06615 11.0505C8.80369 10.788 8.65625 10.4319 8.65625 10.0607C8.65625 9.68946 8.80369 9.33343 9.06615 9.07089" fill="#FF4848"/>
<path fill-rule="evenodd" clip-rule="evenodd" d="M14 0C6.2678 0 0 6.2678 0 14C0 21.7322 6.2678 28 14 28C21.7322 28 28 21.7322 28 14C28 6.2678 21.7322 0 14 0ZM2.8 14C2.8 11.0296 3.98 8.18081 6.0804 6.0804C8.18081 3.98 11.0296 2.8 14 2.8C16.9704 2.8 19.8192 3.98 21.9196 6.0804C24.02 8.18081 25.2 11.0296 25.2 14C25.2 16.9704 24.02 19.8192 21.9196 21.9196C19.8192 24.02 16.9704 25.2 14 25.2C11.0296 25.2 8.18081 24.02 6.0804 21.9196C3.98 19.8192 2.8 16.9704 2.8 14Z" fill="#FF4848"/>
</svg>
