<svg width="40" height="50" viewBox="0 0 40 50" fill="none" xmlns="http://www.w3.org/2000/svg">
<path d="M18.2325 0.731966C18.7013 0.263288 19.3371 0 20 0C20.6629 0 21.2987 0.263288 21.7675 0.731966L29.2675 8.23197C29.7229 8.70347 29.9749 9.33498 29.9692 9.99047C29.9635 10.646 29.7006 11.273 29.237 11.7365C28.7735 12.2 28.1465 12.463 27.491 12.4687C26.8355 12.4743 26.204 12.2224 25.7325 11.767L22.5 8.53447V32.4995C22.5 33.1625 22.2366 33.7984 21.7678 34.2672C21.2989 34.7361 20.663 34.9995 20 34.9995C19.337 34.9995 18.7011 34.7361 18.2322 34.2672C17.7634 33.7984 17.5 33.1625 17.5 32.4995V8.53447L14.2675 11.767C13.796 12.2224 13.1645 12.4743 12.509 12.4687C11.8535 12.463 11.2265 12.2 10.763 11.7365C10.2994 11.273 10.0365 10.646 10.0308 9.99047C10.0251 9.33498 10.2771 8.70347 10.7325 8.23197L18.2325 0.731966ZM0 22.4995C0 21.1734 0.526784 19.9016 1.46447 18.9639C2.40215 18.0263 3.67392 17.4995 5 17.4995H10C10.663 17.4995 11.2989 17.7629 11.7678 18.2317C12.2366 18.7005 12.5 19.3364 12.5 19.9995C12.5 20.6625 12.2366 21.2984 11.7678 21.7672C11.2989 22.2361 10.663 22.4995 10 22.4995H5V44.9995H35V22.4995H30C29.337 22.4995 28.7011 22.2361 28.2322 21.7672C27.7634 21.2984 27.5 20.6625 27.5 19.9995C27.5 19.3364 27.7634 18.7005 28.2322 18.2317C28.7011 17.7629 29.337 17.4995 30 17.4995H35C36.3261 17.4995 37.5979 18.0263 38.5355 18.9639C39.4732 19.9016 40 21.1734 40 22.4995V44.9995C40 46.3256 39.4732 47.5973 38.5355 48.535C37.5979 49.4727 36.3261 49.9995 35 49.9995H5C3.67392 49.9995 2.40215 49.4727 1.46447 48.535C0.526784 47.5973 0 46.3256 0 44.9995V22.4995Z" fill="#FFC93F"/>
</svg>
