<svg width="22" height="26" viewBox="0 0 22 26" fill="none" xmlns="http://www.w3.org/2000/svg">
<path d="M10.0279 0.380626C10.2857 0.136911 10.6354 0 11 0C11.3646 0 11.7143 0.136911 11.9721 0.380626L16.0971 4.28067C16.3476 4.52585 16.4862 4.85424 16.4831 5.1951C16.4799 5.53596 16.3353 5.86202 16.0804 6.10305C15.8254 6.34408 15.4806 6.48081 15.1201 6.48377C14.7595 6.48673 14.4122 6.3557 14.1529 6.11889L12.375 4.43797V16.8999C12.375 17.2447 12.2301 17.5754 11.9723 17.8192C11.7144 18.063 11.3647 18.1999 11 18.1999C10.6353 18.1999 10.2856 18.063 10.0277 17.8192C9.76987 17.5754 9.625 17.2447 9.625 16.8999V4.43797L7.84712 6.11889C7.5878 6.3557 7.24047 6.48673 6.87995 6.48377C6.51943 6.48081 6.17456 6.34408 5.91962 6.10305C5.66469 5.86202 5.52008 5.53596 5.51695 5.1951C5.51382 4.85424 5.65241 4.52585 5.90288 4.28067L10.0279 0.380626ZM0 11.6998C0 11.0103 0.289731 10.349 0.805456 9.86135C1.32118 9.37375 2.02065 9.09982 2.75 9.09982H5.5C5.86467 9.09982 6.21441 9.23678 6.47227 9.48059C6.73013 9.72439 6.875 10.055 6.875 10.3998C6.875 10.7446 6.73013 11.0753 6.47227 11.3191C6.21441 11.5629 5.86467 11.6998 5.5 11.6998H2.75V23.4H19.25V11.6998H16.5C16.1353 11.6998 15.7856 11.5629 15.5277 11.3191C15.2699 11.0753 15.125 10.7446 15.125 10.3998C15.125 10.055 15.2699 9.72439 15.5277 9.48059C15.7856 9.23678 16.1353 9.09982 16.5 9.09982H19.25C19.9793 9.09982 20.6788 9.37375 21.1945 9.86135C21.7103 10.349 22 11.0103 22 11.6998V23.4C22 24.0895 21.7103 24.7509 21.1945 25.2385C20.6788 25.7261 19.9793 26 19.25 26H2.75C2.02065 26 1.32118 25.7261 0.805456 25.2385C0.289731 24.7509 0 24.0895 0 23.4V11.6998Z" fill="black"/>
</svg>
