<svg width="30" height="33" viewBox="0 0 30 33" fill="none" xmlns="http://www.w3.org/2000/svg">
<path d="M1.29297 1.76733H21.9787C24.7653 1.76733 26.1572 1.76733 27.023 2.63318C27.8889 3.49902 27.8889 4.89087 27.8889 7.67753V16.5428C27.8889 19.3295 27.8889 20.7213 27.023 21.5872C26.1572 22.453 24.7653 22.453 21.9787 22.453H11.6358M13.1134 8.41631H21.9787M1.29297 23.9306V18.0204C1.29297 16.627 1.29297 15.9311 1.72589 15.4982C2.15881 15.0653 2.85474 15.0653 4.24807 15.0653H7.20317M1.29297 23.9306H7.20317M1.29297 23.9306V31.3183M7.20317 15.0653V23.9306M7.20317 15.0653H16.0685M7.20317 23.9306V31.3183" stroke="white" stroke-width="2.26815" stroke-linecap="round" stroke-linejoin="round"/>
<path d="M7.20317 8.41628C7.20317 9.20002 6.89183 9.95166 6.33764 10.5059C5.78345 11.06 5.03181 11.3714 4.24807 11.3714C3.46433 11.3714 2.71269 11.06 2.1585 10.5059C1.60431 9.95166 1.29297 9.20002 1.29297 8.41628C1.29297 7.63254 1.60431 6.8809 2.1585 6.32671C2.71269 5.77252 3.46433 5.46118 4.24807 5.46118C5.03181 5.46118 5.78345 5.77252 6.33764 6.32671C6.89183 6.8809 7.20317 7.63254 7.20317 8.41628Z" stroke="white" stroke-width="2.26815" stroke-linecap="round" stroke-linejoin="round"/>
</svg>
