<svg width="48" height="48" viewBox="0 0 48 48" fill="none" xmlns="http://www.w3.org/2000/svg">
<rect width="48" height="48" rx="6" fill="#74BF44" fill-opacity="0.08"/>
<path d="M14 31.5C14 30.1739 14.5268 28.9021 15.4645 27.9645C16.4021 27.0268 17.6739 26.5 19 26.5H29C30.3261 26.5 31.5979 27.0268 32.5355 27.9645C33.4732 28.9021 34 30.1739 34 31.5C34 32.163 33.7366 32.7989 33.2678 33.2678C32.7989 33.7366 32.163 34 31.5 34H16.5C15.837 34 15.2011 33.7366 14.7322 33.2678C14.2634 32.7989 14 32.163 14 31.5Z" stroke="#74BF44" stroke-width="2" stroke-linejoin="round"/>
<path d="M24 21.5C26.0711 21.5 27.75 19.8211 27.75 17.75C27.75 15.6789 26.0711 14 24 14C21.9289 14 20.25 15.6789 20.25 17.75C20.25 19.8211 21.9289 21.5 24 21.5Z" stroke="#74BF44" stroke-width="2"/>
</svg>
