<svg width="35" height="34" viewBox="0 0 35 34" fill="none" xmlns="http://www.w3.org/2000/svg">
<path d="M33.6954 6.1125L18.0033 0.835049C17.7348 0.744762 17.4446 0.744762 17.1761 0.835049L1.48397 6.1125C1.24662 6.19327 1.03726 6.34112 0.880776 6.53847C0.724297 6.73582 0.627288 6.97436 0.601287 7.22572C0.593614 7.27149 0.589787 7.31783 0.589844 7.36425V20.5579C0.589844 20.9078 0.727617 21.2434 0.972855 21.4908C1.21809 21.7382 1.55071 21.8772 1.89753 21.8772C2.24434 21.8772 2.57696 21.7382 2.8222 21.4908C3.06743 21.2434 3.20521 20.9078 3.20521 20.5579V9.19487L8.69583 11.0403C7.23704 13.4182 6.77316 16.2829 7.40603 19.0055C8.0389 21.7281 9.71679 24.086 12.0713 25.5616C9.129 26.7259 6.58556 28.8319 4.72539 31.7115C4.62864 31.8565 4.56145 32.0196 4.5277 32.1911C4.49395 32.3626 4.49433 32.5391 4.52881 32.7105C4.56329 32.8818 4.63119 33.0446 4.72855 33.1892C4.82591 33.3338 4.9508 33.4575 5.09595 33.5531C5.24111 33.6486 5.40363 33.714 5.57408 33.7456C5.74453 33.7772 5.91951 33.7743 6.08883 33.7371C6.25816 33.6998 6.41846 33.629 6.56042 33.5287C6.70238 33.4284 6.82316 33.3007 6.91575 33.1529C9.3791 29.3399 13.2694 27.1547 17.5897 27.1547C21.91 27.1547 25.8003 29.3399 28.2636 33.1529C28.4554 33.4405 28.7517 33.6404 29.0884 33.7093C29.4251 33.7783 29.7752 33.7108 30.063 33.5214C30.3508 33.3321 30.5531 33.036 30.6263 32.6973C30.6995 32.3586 30.6376 32.0045 30.454 31.7115C28.5938 28.8319 26.0406 26.7259 23.1081 25.5616C25.4604 24.0861 27.1367 21.7297 27.7694 19.0091C28.4022 16.2885 27.9398 13.4257 26.4836 11.0486L33.6954 8.62424C33.9559 8.53672 34.1824 8.36872 34.3429 8.14405C34.5035 7.91939 34.5898 7.64946 34.5898 7.3725C34.5898 7.09554 34.5035 6.8256 34.3429 6.60094C34.1824 6.37627 33.9559 6.20828 33.6954 6.12075V6.1125ZM25.4358 16.5998C25.4361 17.8513 25.1424 19.0851 24.5786 20.1998C24.0149 21.3146 23.1972 22.2787 22.1926 23.0129C21.1881 23.7471 20.0253 24.2305 18.7997 24.4235C17.5741 24.6165 16.3207 24.5136 15.1421 24.1232C13.9636 23.7328 12.8936 23.066 12.0199 22.1776C11.1463 21.2892 10.4938 20.2044 10.1162 19.0124C9.73847 17.8203 9.6463 16.5548 9.84722 15.3198C10.0481 14.0849 10.5364 12.9155 11.272 11.9078L17.1761 13.8869C17.4446 13.9771 17.7348 13.9771 18.0033 13.8869L23.9074 11.9078C24.9008 13.2668 25.4365 14.9112 25.4358 16.5998ZM17.5897 11.2514L6.03307 7.36425L17.5897 3.47707L29.1463 7.36425L17.5897 11.2514Z" fill="white"/>
</svg>
