<svg width="43" height="30" viewBox="0 0 43 30" fill="none" xmlns="http://www.w3.org/2000/svg">
<path d="M7.68131 0C5.6441 0 3.69033 0.790176 2.2498 2.1967C0.809279 3.60322 0 5.51088 0 7.5V22.5C0 24.4891 0.809279 26.3968 2.2498 27.8033C3.69033 29.2098 5.6441 30 7.68131 30H23.0439C25.0812 30 27.0349 29.2098 28.4755 27.8033C29.916 26.3968 30.7253 24.4891 30.7253 22.5V22.119L36.9778 26.334C37.5541 26.7223 38.2282 26.9494 38.9271 26.9908C39.626 27.0321 40.3232 26.8861 40.9433 26.5686C41.5633 26.251 42.0827 25.774 42.4452 25.1891C42.8077 24.6042 42.9996 23.9337 43 23.25V6.756C42.9996 6.07234 42.8077 5.4018 42.4452 4.81689C42.0827 4.23198 41.5633 3.75497 40.9433 3.43742C40.3232 3.11987 39.626 2.97388 38.9271 3.01522C38.2282 3.05657 37.5541 3.28368 36.9778 3.672L30.7253 7.887V7.5C30.7253 5.51088 29.916 3.60322 28.4755 2.1967C27.0349 0.790176 25.0812 0 23.0439 0H7.68131ZM30.7253 11.532L38.7261 6.138C38.8415 6.06028 38.9764 6.01485 39.1163 6.00663C39.2562 5.99841 39.3957 6.02771 39.5197 6.09136C39.6438 6.15502 39.7477 6.2506 39.8201 6.36775C39.8925 6.4849 39.9307 6.61916 39.9305 6.756V23.25C39.9301 23.3866 39.8915 23.5205 39.8189 23.6372C39.7462 23.7539 39.6423 23.849 39.5184 23.9123C39.3944 23.9756 39.2551 24.0047 39.1155 23.9963C38.9759 23.988 38.8412 23.9426 38.7261 23.865L30.7253 18.474V11.532ZM3.07253 7.5C3.07253 6.30653 3.55809 5.16193 4.42241 4.31802C5.28672 3.47411 6.45899 3 7.68131 3H23.0439C24.2663 3 25.4385 3.47411 26.3029 4.31802C27.1672 5.16193 27.6527 6.30653 27.6527 7.5V22.5C27.6527 23.6935 27.1672 24.8381 26.3029 25.682C25.4385 26.5259 24.2663 27 23.0439 27H7.68131C6.45899 27 5.28672 26.5259 4.42241 25.682C3.55809 24.8381 3.07253 23.6935 3.07253 22.5V7.5Z" fill="#74BF44"/>
</svg>
